M48
; DRILL file KiCad 10.0.0 date 2026-04-18T20:13:02
; FORMAT={-:-/ absolute / metric / decimal}
; #@! TF.CreationDate,2026-04-18T20:13:02-07:00
; #@! TF.GenerationSoftware,Kicad,Pcbnew,10.0.0
; #@! TF.FileFunction,Plated,1,4,PTH
FMAT,2
METRIC
; #@! TA.AperFunction,Plated,PTH,ViaDrill
T1C0.200
; #@! TA.AperFunction,Plated,PTH,ComponentDrill
T2C3.200
%
G90
G05
T1
X115.32Y-146.06
X115.37Y-51.53
X115.37Y-54.25
X115.37Y-56.75
X115.37Y-59.25
X115.37Y-61.75
X115.37Y-64.25
X115.37Y-66.75
X115.37Y-69.25
X115.37Y-71.75
X115.37Y-74.25
X115.37Y-76.75
X115.37Y-79.25
X115.37Y-81.75
X115.37Y-84.25
X115.37Y-86.75
X115.37Y-89.25
X115.37Y-91.75
X115.37Y-94.25
X115.37Y-96.75
X115.37Y-99.25
X115.37Y-101.75
X115.37Y-104.25
X115.37Y-106.75
X115.37Y-109.25
X115.37Y-111.75
X115.37Y-114.27
X115.37Y-116.77
X115.37Y-119.27
X115.37Y-121.77
X115.37Y-124.27
X115.37Y-126.77
X115.37Y-129.27
X115.37Y-131.77
X115.37Y-134.27
X115.37Y-136.77
X115.37Y-139.27
X115.37Y-141.77
X115.37Y-144.27
X117.82Y-146.06
X117.87Y-51.53
X120.32Y-146.06
X120.37Y-51.53
X122.82Y-146.06
X122.87Y-51.53
X125.32Y-146.06
X125.37Y-51.53
X125.425Y-76.94
X125.425Y-77.44
X125.425Y-77.94
X125.425Y-78.44
X125.425Y-96.027
X125.425Y-96.527
X125.425Y-97.027
X125.425Y-97.527
X125.425Y-115.114
X125.425Y-115.614
X125.425Y-116.114
X125.425Y-116.614
X125.425Y-134.201
X125.425Y-134.701
X125.425Y-135.201
X125.425Y-135.701
X125.715Y-125.3
X125.725Y-128.59
X125.73Y-71.31
X125.73Y-90.42
X125.732Y-144.38
X125.74Y-109.57
X125.77Y-106.27
X125.8Y-87.06
X125.925Y-76.44
X125.925Y-77.44
X125.925Y-77.94
X125.925Y-95.53
X125.925Y-96.527
X125.925Y-97.027
X125.925Y-114.614
X125.925Y-115.614
X125.925Y-116.114
X125.925Y-133.701
X125.925Y-134.701
X125.925Y-135.201
X126.425Y-97.03
X126.425Y-97.53
X126.425Y-77.44
X126.425Y-77.94
X126.425Y-78.44
X126.425Y-96.527
X126.425Y-115.614
X126.425Y-116.114
X126.425Y-116.614
X126.425Y-134.701
X126.425Y-135.201
X126.425Y-135.701
X127.425Y-77.94
X127.425Y-79.44
X127.425Y-79.94
X127.425Y-97.027
X127.425Y-98.527
X127.425Y-99.027
X127.425Y-116.114
X127.425Y-117.614
X127.425Y-118.114
X127.425Y-135.201
X127.425Y-136.701
X127.425Y-137.201
X127.495Y-71.045
X127.495Y-90.135
X127.495Y-128.305
X127.5Y-86.58
X127.5Y-105.67
X127.5Y-143.84
X127.505Y-109.215
X127.51Y-124.75
X127.82Y-146.06
X127.87Y-51.53
X127.925Y-80.44
X127.925Y-99.527
X127.925Y-118.614
X127.925Y-137.701
X128.1Y-87.47
X128.1Y-106.56
X128.1Y-144.73
X128.105Y-71.875
X128.105Y-90.965
X128.105Y-129.135
X128.11Y-125.64
X128.115Y-110.045
X128.425Y-80.44
X128.425Y-99.527
X128.425Y-118.614
X128.425Y-137.701
X128.925Y-77.94
X128.925Y-97.027
X128.925Y-116.114
X128.925Y-135.201
X129.42Y-77.94
X129.425Y-97.027
X129.425Y-116.114
X129.425Y-135.201
X129.86Y-87.46
X129.86Y-106.55
X129.86Y-144.72
X129.87Y-125.63
X129.895Y-71.895
X129.895Y-90.985
X129.895Y-129.155
X129.905Y-110.065
X129.925Y-78.44
X129.925Y-78.94
X129.925Y-97.527
X129.925Y-98.027
X129.925Y-116.614
X129.925Y-117.114
X129.925Y-135.701
X129.925Y-136.201
X130.32Y-146.06
X130.37Y-51.53
X130.465Y-71.025
X130.465Y-90.115
X130.465Y-128.285
X130.47Y-86.59
X130.47Y-105.68
X130.47Y-143.85
X130.475Y-109.195
X130.48Y-124.76
X130.92Y-133.701
X130.925Y-76.44
X130.925Y-77.44
X130.925Y-78.44
X130.925Y-95.527
X130.925Y-96.527
X130.925Y-97.527
X130.925Y-114.614
X130.925Y-115.614
X130.925Y-116.614
X130.925Y-134.701
X130.925Y-135.701
X131.425Y-97.037
X131.425Y-116.117
X131.425Y-77.947
X131.425Y-135.207
X131.425Y-76.44
X131.425Y-76.94
X131.425Y-77.44
X131.425Y-95.527
X131.425Y-96.027
X131.425Y-96.527
X131.425Y-115.114
X131.425Y-116.617
X131.425Y-133.701
X131.425Y-134.201
X131.425Y-134.701
X131.43Y-78.447
X131.43Y-135.707
X131.43Y-115.614
X131.43Y-97.537
X131.43Y-114.614
X132.17Y-108.64
X132.19Y-89.56
X132.2Y-106.19
X132.207Y-125.31
X132.235Y-144.38
X132.24Y-127.62
X132.26Y-87.11
X132.27Y-70.27
X132.354Y-79.648
X132.354Y-98.738
X132.364Y-117.818
X132.498Y-137.052
X132.6Y-146.07
X132.87Y-51.53
X133.97Y-80.57
X133.97Y-99.66
X133.97Y-137.83
X133.98Y-118.74
X134.855Y-81.915
X134.855Y-101.005
X134.855Y-139.175
X134.86Y-81.33
X134.86Y-100.42
X134.86Y-138.59
X134.865Y-120.085
X134.87Y-119.5
X134.92Y-78.96
X134.92Y-98.05
X134.92Y-136.22
X134.93Y-78.437
X134.93Y-97.527
X134.93Y-117.13
X134.93Y-135.697
X134.94Y-116.607
X135.02Y-80.03
X135.02Y-99.12
X135.02Y-137.29
X135.03Y-118.2
X135.1Y-146.07
X135.28Y-63.11
X135.3Y-58.22
X135.37Y-51.53
X135.44Y-77.438
X135.44Y-96.528
X135.45Y-115.608
X135.479Y-134.703
X135.84Y-76.98
X135.84Y-96.07
X135.84Y-134.24
X135.85Y-115.15
X136.05Y-73.14
X136.05Y-92.23
X136.05Y-130.4
X136.06Y-111.31
X136.42Y-127.72
X136.47Y-108.53
X136.49Y-89.41
X136.5Y-70.36
X136.68Y-83.57
X136.68Y-102.66
X136.68Y-140.83
X136.69Y-121.74
X136.83Y-73.15
X136.83Y-92.24
X136.83Y-130.41
X136.84Y-111.32
X137.6Y-146.07
X137.87Y-51.53
X139.25Y-58.28
X139.3Y-63.11
X139.81Y-82.423
X139.81Y-101.513
X139.81Y-139.683
X139.82Y-120.593
X140.1Y-146.07
X140.37Y-51.53
X140.37Y-76.56
X140.37Y-95.65
X140.37Y-133.82
X140.38Y-114.73
X140.68Y-83.319
X140.68Y-102.409
X140.68Y-140.579
X140.69Y-121.489
X140.9Y-76.21
X140.9Y-95.3
X140.9Y-133.47
X140.91Y-114.38
X140.95Y-57.01
X141.04Y-59.14
X141.1Y-82.634
X141.1Y-101.724
X141.1Y-139.894
X141.11Y-120.804
X141.39Y-54.64
X141.81Y-57.04
X142.22Y-59.79
X142.6Y-146.07
X142.87Y-51.53
X143.53Y-75.064
X143.53Y-86.268
X143.53Y-94.154
X143.53Y-105.358
X143.53Y-132.324
X143.53Y-143.528
X143.54Y-113.234
X143.54Y-124.438
X144.18Y-64.99
X144.185Y-61.41
X145.1Y-146.07
X145.36Y-55.05
X145.37Y-51.53
X145.635Y-86.715
X145.635Y-105.805
X145.635Y-143.975
X145.645Y-124.885
X145.7Y-95.4
X145.7Y-97.3
X145.7Y-114.5
X145.7Y-133.6
X145.795Y-61.085
X145.8Y-76.3
X145.8Y-78.3
X145.8Y-135.5
X145.88Y-64.59
X145.9Y-116.4
X146.26Y-55.01
X146.32Y-83.93
X146.32Y-103.02
X146.32Y-141.19
X146.33Y-122.1
X146.45Y-61.76
X146.48Y-65.41
X146.975Y-75.055
X146.975Y-94.145
X146.975Y-132.315
X146.985Y-113.225
X147.6Y-146.07
X147.725Y-75.065
X147.725Y-94.155
X147.725Y-132.325
X147.735Y-113.235
X147.87Y-51.53
X148.59Y-116.639
X148.59Y-117.139
X148.59Y-117.589
X148.59Y-118.089
X148.6Y-97.602
X148.6Y-98.052
X148.6Y-98.502
X148.6Y-98.952
X148.61Y-135.72
X148.61Y-136.226
X148.61Y-136.676
X148.626Y-137.176
X148.628Y-78.515
X148.64Y-78.965
X148.64Y-79.415
X148.64Y-79.865
X148.8Y-102.1
X148.8Y-121.1
X148.9Y-140.3
X149.4Y-82.6
X150.0Y-77.2
X150.1Y-96.0
X150.1Y-134.4
X150.12Y-115.19
X150.13Y-146.08
X150.37Y-51.53
X151.8Y-74.9
X151.82Y-132.19
X151.87Y-91.09
X151.9Y-72.49
X151.9Y-93.91
X151.9Y-129.43
X151.91Y-110.49
X151.91Y-112.97
X152.63Y-146.08
X152.87Y-51.53
X154.15Y-111.62
X154.49Y-75.06
X154.49Y-130.91
X154.5Y-94.15
X155.0Y-55.0
X155.13Y-146.08
X155.37Y-51.53
X157.63Y-146.08
X157.87Y-51.53
X159.27Y-113.04
X159.29Y-105.5
X159.65Y-130.61
X159.82Y-105.5
X159.84Y-113.45
X160.0Y-55.0
X160.0Y-75.0
X160.0Y-80.0
X160.0Y-85.0
X160.0Y-90.0
X160.12Y-147.86
X160.13Y-146.08
X160.16Y-149.73
X160.37Y-51.53
X160.99Y-153.41
X161.015Y-152.645
X161.49Y-153.01
X161.68Y-120.12
X161.76Y-117.59
X162.005Y-153.405
X162.03Y-152.64
X162.08Y-102.92
X162.11Y-116.88
X162.12Y-105.57
X162.18Y-120.82
X162.58Y-104.19
X162.87Y-51.53
X163.05Y-102.88
X163.06Y-105.61
X163.06Y-152.88
X163.73Y-151.66
X163.95Y-120.5
X163.99Y-153.11
X164.02Y-114.18
X164.03Y-117.39
X164.08Y-132.75
X164.16Y-134.85
X164.91Y-144.55
X165.0Y-55.0
X165.0Y-60.0
X165.0Y-75.0
X165.0Y-80.0
X165.0Y-85.0
X165.0Y-90.0
X165.11Y-150.23
X165.37Y-51.53
X165.77Y-152.61
X166.645Y-153.39
X166.968Y-153.043
X167.007Y-123.64
X167.02Y-132.96
X167.07Y-116.84
X167.245Y-153.42
X167.5Y-132.5
X167.87Y-51.53
X168.14Y-152.56
X168.29Y-150.59
X168.41Y-134.84
X168.97Y-141.08
X169.137Y-123.64
X169.32Y-145.93
X170.0Y-55.0
X170.0Y-60.0
X170.0Y-75.0
X170.0Y-80.0
X170.0Y-85.0
X170.0Y-90.0
X170.08Y-132.64
X170.13Y-150.5
X170.18Y-134.99
X170.37Y-51.53
X170.6Y-144.57
X170.74Y-132.81
X170.77Y-125.17
X170.78Y-134.54
X170.9Y-116.96
X171.28Y-102.85
X171.34Y-105.39
X171.78Y-104.11
X171.8Y-146.13
X172.28Y-140.61
X172.33Y-102.82
X172.35Y-105.41
X172.698Y-122.022
X172.7Y-110.94
X172.7Y-130.62
X172.722Y-114.75
X172.722Y-117.925
X172.722Y-124.275
X172.722Y-127.45
X172.87Y-51.53
X173.23Y-132.72
X173.63Y-134.83
X173.647Y-146.168
X173.675Y-139.498
X173.677Y-148.318
X173.769Y-149.998
X174.04Y-132.77
X174.22Y-150.02
X174.46Y-127.02
X174.46Y-127.87
X174.48Y-114.44
X174.727Y-119.634
X174.75Y-150.03
X174.79Y-117.95
X174.797Y-124.275
X175.0Y-55.0
X175.0Y-60.0
X175.0Y-65.0
X175.0Y-80.0
X175.0Y-85.0
X175.0Y-90.0
X175.06Y-114.47
X175.14Y-127.96
X175.16Y-118.46
X175.2Y-150.0
X175.22Y-146.2
X175.25Y-148.35
X175.37Y-51.53
X175.57Y-112.44
X176.34Y-132.76
X176.652Y-145.863
X176.808Y-150.031
X176.82Y-134.85
X177.06Y-110.5
X177.11Y-132.76
X177.176Y-145.875
X177.258Y-150.02
X177.45Y-128.57
X177.54Y-115.3
X177.6Y-118.46
X177.7Y-145.895
X177.7Y-123.7
X177.708Y-150.02
X177.72Y-119.7
X177.88Y-51.55
X178.157Y-150.041
X178.225Y-145.895
X178.37Y-129.27
X178.39Y-128.51
X178.45Y-137.85
X178.46Y-140.19
X179.93Y-140.19
X179.97Y-137.89
X180.0Y-55.0
X180.0Y-60.0
X180.0Y-65.0
X180.0Y-80.0
X180.0Y-85.0
X180.0Y-90.0
X180.0Y-116.53
X180.04Y-124.5
X180.057Y-145.668
X180.057Y-147.328
X180.072Y-149.943
X180.084Y-120.875
X180.084Y-121.325
X180.1Y-121.825
X180.11Y-134.838
X180.113Y-120.375
X180.15Y-118.58
X180.29Y-117.2
X180.38Y-51.55
X180.583Y-118.459
X180.625Y-149.96
X180.71Y-140.2
X180.74Y-137.89
X180.888Y-112.216
X181.0Y-124.0
X181.035Y-127.557
X181.075Y-149.96
X181.15Y-115.62
X181.435Y-127.281
X181.435Y-112.16
X181.63Y-145.7
X181.63Y-147.36
X181.645Y-149.975
X181.885Y-112.16
X181.92Y-126.97
X182.05Y-148.67
X182.137Y-104.64
X182.23Y-137.87
X182.26Y-140.18
X182.3Y-126.7
X182.43Y-115.2
X182.435Y-112.149
X182.5Y-120.0
X182.5Y-122.5
X182.5Y-125.0
X182.67Y-127.71
X182.8Y-111.2
X182.8Y-153.01
X182.88Y-51.55
X183.0Y-116.0
X183.07Y-114.6
X183.15Y-126.65
X183.285Y-107.362
X183.43Y-127.022
X183.45Y-145.15
X183.685Y-112.167
X183.72Y-137.94
X183.83Y-134.9
X183.88Y-130.03
X183.9Y-140.18
X183.945Y-127.195
X184.235Y-112.19
X184.475Y-127.445
X184.506Y-130.016
X184.685Y-112.19
X184.89Y-133.54
X185.0Y-55.0
X185.0Y-60.0
X185.0Y-65.0
X185.0Y-70.0
X185.0Y-80.0
X185.0Y-85.0
X185.0Y-90.0
X185.0Y-117.5
X185.0Y-122.5
X185.0Y-125.0
X185.01Y-136.49
X185.031Y-130.013
X185.14Y-112.19
X185.19Y-114.83
X185.28Y-127.64
X185.3Y-153.01
X185.38Y-51.55
X185.53Y-130.048
X185.6Y-136.46
X186.055Y-130.056
X186.33Y-107.42
X186.33Y-109.438
X186.46Y-134.838
X186.7Y-109.87
X186.95Y-133.1
X187.0Y-125.0
X187.01Y-111.86
X187.2Y-115.75
X187.5Y-117.5
X187.5Y-120.0
X187.8Y-153.01
X187.88Y-51.55
X188.022Y-104.64
X188.05Y-115.75
X188.29Y-115.144
X188.3Y-130.7
X188.63Y-130.09
X188.87Y-115.26
X188.91Y-127.36
X189.0Y-126.0
X189.0Y-139.42
X189.06Y-131.2
X189.07Y-111.86
X189.505Y-107.362
X189.619Y-109.323
X189.63Y-111.89
X189.635Y-132.762
X189.635Y-134.838
X189.766Y-130.284
X189.83Y-114.63
X190.0Y-55.0
X190.0Y-60.0
X190.0Y-65.0
X190.0Y-70.0
X190.0Y-90.0
X190.0Y-117.5
X190.0Y-120.0
X190.0Y-122.5
X190.3Y-153.01
X190.38Y-51.55
X190.64Y-114.62
X190.65Y-142.56
X190.693Y-143.833
X191.11Y-130.16
X191.151Y-112.191
X191.46Y-127.54
X191.48Y-114.62
X191.87Y-127.16
X191.918Y-114.742
X192.175Y-142.42
X192.3Y-122.1
X192.33Y-133.07
X192.348Y-114.877
X192.4Y-120.5
X192.4Y-126.74
X192.5Y-117.5
X192.5Y-125.0
X192.8Y-109.41
X192.8Y-153.01
X192.81Y-134.838
X192.87Y-119.69
X192.88Y-51.55
X192.887Y-137.15
X192.99Y-121.31
X193.243Y-112.223
X193.31Y-133.05
X193.59Y-101.47
X194.68Y-131.78
X195.0Y-55.0
X195.0Y-60.0
X195.0Y-65.0
X195.0Y-70.0
X195.0Y-75.0
X195.0Y-90.0
X195.21Y-147.99
X195.3Y-122.5
X195.3Y-123.3
X195.3Y-124.1
X195.3Y-124.9
X195.3Y-125.7
X195.3Y-126.5
X195.3Y-153.01
X195.34Y-127.32
X195.38Y-51.55
X195.493Y-118.107
X195.555Y-118.875
X195.555Y-119.325
X195.6Y-123.7
X195.6Y-124.5
X195.6Y-125.3
X195.6Y-126.1
X195.8Y-122.9
X195.9Y-120.0
X196.0Y-111.9
X196.3Y-140.86
X196.985Y-143.96
X197.71Y-147.99
X197.8Y-153.01
X197.88Y-51.55
X197.992Y-117.29
X197.992Y-120.465
X197.992Y-123.88
X198.123Y-126.815
X198.74Y-132.53
X198.88Y-109.62
X199.05Y-102.03
X199.07Y-103.36
X199.17Y-100.7
X199.29Y-99.45
X199.525Y-140.785
X199.62Y-132.51
X199.63Y-101.36
X200.0Y-55.0
X200.0Y-60.0
X200.0Y-65.0
X200.0Y-70.0
X200.0Y-75.0
X200.0Y-80.0
X200.0Y-85.0
X200.067Y-117.29
X200.067Y-120.465
X200.067Y-123.64
X200.197Y-126.815
X200.21Y-147.99
X200.3Y-153.01
X200.38Y-51.55
X201.51Y-133.165
X201.94Y-134.95
X202.44Y-144.45
X202.69Y-99.46
X202.71Y-147.99
X202.73Y-147.25
X202.74Y-103.31
X202.76Y-100.79
X202.8Y-102.1
X202.8Y-153.01
X202.88Y-51.55
X205.0Y-55.0
X205.0Y-60.0
X205.0Y-65.0
X205.0Y-70.0
X205.0Y-75.0
X205.0Y-80.0
X205.0Y-85.0
X205.0Y-90.0
X205.21Y-147.99
X205.24Y-114.02
X205.24Y-117.21
X205.24Y-120.465
X205.24Y-126.815
X205.24Y-129.99
X205.24Y-133.165
X205.3Y-153.01
X205.38Y-51.55
X207.02Y-117.22
X207.05Y-136.22
X207.09Y-124.51
X207.61Y-136.36
X207.71Y-147.99
X207.8Y-153.01
X207.88Y-51.55
X207.9Y-108.71
X208.2Y-136.44
X208.68Y-136.73
X208.81Y-111.52
X208.97Y-146.69
X209.79Y-146.49
X210.0Y-55.0
X210.0Y-60.0
X210.0Y-65.0
X210.0Y-70.0
X210.0Y-75.0
X210.0Y-80.0
X210.0Y-85.0
X210.0Y-90.0
X210.21Y-147.99
X210.27Y-146.72
X210.3Y-153.01
X210.38Y-51.55
X210.4Y-137.19
X210.98Y-137.1
X211.25Y-146.17
X211.62Y-136.98
X212.143Y-136.947
X212.19Y-146.32
X212.71Y-147.99
X212.79Y-113.63
X212.8Y-153.01
X212.88Y-51.55
X212.95Y-110.43
X213.06Y-138.74
X213.1Y-133.77
X213.33Y-134.765
X213.34Y-134.19
X213.38Y-113.77
X213.53Y-135.28
X214.01Y-111.29
X214.04Y-113.82
X214.15Y-122.25
X214.19Y-146.46
X214.2Y-116.63
X214.2Y-118.0
X214.2Y-119.3
X214.2Y-123.6
X214.2Y-124.9
X214.2Y-126.2
X214.2Y-129.3
X214.2Y-130.6
X214.2Y-132.0
X214.2Y-133.3
X214.3Y-115.3
X214.52Y-113.85
X214.61Y-136.39
X214.946Y-136.819
X214.96Y-146.48
X215.0Y-55.0
X215.0Y-90.0
X215.0Y-95.0
X215.2Y-137.19
X215.21Y-147.99
X215.3Y-153.01
X215.38Y-51.55
X215.57Y-137.78
X215.68Y-147.14
X217.1Y-112.68
X217.23Y-142.42
X217.71Y-147.99
X217.8Y-153.01
X217.88Y-51.55
X218.14Y-132.27
X218.69Y-137.84
X218.94Y-111.01
X219.724Y-111.298
X219.98Y-111.675
X220.0Y-55.0
X220.0Y-90.0
X220.0Y-95.0
X220.21Y-147.99
X220.3Y-153.01
X220.38Y-51.55
X221.61Y-131.5
X222.45Y-111.09
X222.63Y-107.62
X222.8Y-153.01
X222.88Y-51.55
X223.5Y-108.94
X223.52Y-106.52
X223.92Y-146.91
X224.03Y-137.59
X224.43Y-131.75
X224.49Y-110.74
X224.78Y-102.98
X224.83Y-104.28
X225.0Y-55.0
X225.0Y-90.0
X225.0Y-95.0
X225.1Y-139.67
X225.17Y-107.92
X225.28Y-141.33
X225.3Y-153.01
X225.38Y-51.55
X225.59Y-103.07
X225.64Y-104.35
X227.02Y-110.77
X227.03Y-108.01
X227.18Y-145.38
X227.22Y-143.32
X227.26Y-144.49
X227.36Y-131.11
X227.66Y-143.9
X227.68Y-145.99
X227.71Y-145.0
X227.8Y-153.01
X227.88Y-51.55
X228.19Y-143.34
X228.2Y-145.38
X228.29Y-144.49
X229.01Y-108.0
X229.907Y-110.667
X230.0Y-55.0
X230.0Y-90.0
X230.0Y-95.0
X230.21Y-139.53
X230.25Y-140.97
X230.3Y-153.01
X230.38Y-51.55
X230.54Y-131.97
X230.72Y-137.66
X231.3Y-107.96
X231.63Y-128.83
X232.123Y-109.46
X232.59Y-138.89
X232.8Y-153.01
X232.83Y-122.32
X232.88Y-51.55
X233.15Y-120.18
X233.5Y-118.72
X233.8Y-125.8
X233.87Y-99.5
X234.06Y-131.41
X234.43Y-140.6
X234.58Y-99.52
X234.671Y-126.035
X234.72Y-139.47
X235.0Y-55.0
X235.0Y-90.0
X235.0Y-95.0
X235.04Y-109.54
X235.08Y-137.5
X235.12Y-122.28
X235.3Y-153.01
X235.37Y-113.89
X235.38Y-51.55
X235.427Y-110.095
X235.5Y-115.58
X235.52Y-129.75
X235.59Y-132.64
X235.66Y-120.22
X235.67Y-131.22
X235.69Y-110.46
X235.71Y-126.6
X235.76Y-124.12
X235.76Y-128.11
X235.814Y-111.354
X235.839Y-118.059
X235.86Y-116.96
X236.73Y-145.5
X236.77Y-143.44
X236.81Y-144.61
X237.15Y-99.13
X237.17Y-99.96
X237.21Y-144.02
X237.23Y-146.11
X237.26Y-145.12
X237.74Y-143.46
X237.75Y-145.5
X237.78Y-99.92
X237.8Y-153.01
X237.81Y-99.12
X237.84Y-144.61
X237.88Y-51.55
X239.2Y-106.71
X239.22Y-102.91
X239.22Y-107.54
X239.24Y-103.74
X239.28Y-99.19
X239.76Y-139.4
X239.83Y-99.89
X239.83Y-107.5
X239.85Y-103.7
X239.86Y-106.7
X239.88Y-102.9
X239.97Y-140.51
X240.0Y-55.0
X240.0Y-60.0
X240.0Y-65.0
X240.0Y-70.0
X240.0Y-75.0
X240.0Y-80.0
X240.0Y-85.0
X240.0Y-90.0
X240.0Y-95.0
X240.09Y-127.66
X240.17Y-136.47
X240.3Y-153.01
X240.46Y-51.57
X242.79Y-51.59
X242.79Y-54.09
X242.79Y-56.59
X242.79Y-59.09
X242.79Y-61.59
X242.79Y-64.09
X242.79Y-66.59
X242.79Y-69.09
X242.79Y-71.59
X242.79Y-74.09
X242.79Y-76.59
X242.79Y-79.09
X242.79Y-81.59
X242.79Y-84.09
X242.79Y-86.59
X242.79Y-89.09
X242.79Y-91.59
X242.79Y-94.09
X242.79Y-96.59
X242.79Y-99.09
X242.79Y-101.59
X242.79Y-104.09
X242.79Y-106.59
X242.79Y-109.09
X242.8Y-111.58
X242.8Y-114.08
X242.8Y-116.58
X242.8Y-119.08
X242.8Y-121.58
X242.8Y-124.08
X242.8Y-126.58
X242.8Y-129.08
X242.8Y-131.58
X242.8Y-134.08
X242.8Y-136.58
X242.8Y-139.08
X242.8Y-141.58
X242.8Y-144.08
X242.8Y-146.58
X242.8Y-149.08
X242.8Y-151.58
X242.8Y-153.01
T2
X121.802Y-64.879
X121.802Y-150.279
M30
