%TF.GenerationSoftware,KiCad,Pcbnew,10.0.0*%
%TF.CreationDate,2026-04-18T20:13:00-07:00*%
%TF.ProjectId,html_accelerator,68746d6c-5f61-4636-9365-6c657261746f,1*%
%TF.SameCoordinates,Original*%
%TF.FileFunction,Legend,Bot*%
%TF.FilePolarity,Positive*%
%FSLAX46Y46*%
G04 Gerber Fmt 4.6, Leading zero omitted, Abs format (unit mm)*
G04 Created by KiCad (PCBNEW 10.0.0) date 2026-04-18 20:13:00*
%MOMM*%
%LPD*%
G01*
G04 APERTURE LIST*
%ADD10C,0.250000*%
%ADD11C,0.000000*%
G04 APERTURE END LIST*
D10*
G36*
X214172956Y-87673451D02*
G01*
X214228505Y-87681267D01*
X214285354Y-87697319D01*
X214392206Y-87750898D01*
X214481735Y-87827856D01*
X214548666Y-87923213D01*
X214590634Y-88034685D01*
X214601546Y-88096072D01*
X214605338Y-88162211D01*
X214605274Y-88170821D01*
X214600290Y-88237687D01*
X214587778Y-88300426D01*
X214567647Y-88360491D01*
X214540825Y-88415626D01*
X214506939Y-88466921D01*
X214467391Y-88512402D01*
X214422133Y-88552360D01*
X214372526Y-88585683D01*
X214263647Y-88631062D01*
X214148970Y-88646301D01*
X214148628Y-88646300D01*
X214087836Y-88642213D01*
X214030538Y-88630445D01*
X213974661Y-88610601D01*
X213923123Y-88583723D01*
X213874075Y-88548772D01*
X213830390Y-88507651D01*
X213791232Y-88459545D01*
X213758464Y-88406578D01*
X213713298Y-88288901D01*
X213698098Y-88165020D01*
X213698215Y-88153681D01*
X213703687Y-88087593D01*
X213716870Y-88024817D01*
X213737957Y-87963792D01*
X213765919Y-87907244D01*
X213800775Y-87854685D01*
X213841299Y-87807771D01*
X213935869Y-87733172D01*
X214040936Y-87687722D01*
X214148970Y-87672626D01*
X214172956Y-87673451D01*
G37*
G36*
X216825803Y-87672637D02*
G01*
X216889184Y-87677016D01*
X216947929Y-87688885D01*
X217004577Y-87708677D01*
X217056076Y-87735234D01*
X217105540Y-87770352D01*
X217149035Y-87811434D01*
X217189107Y-87861186D01*
X217222214Y-87915584D01*
X217249399Y-87976314D01*
X217268857Y-88039527D01*
X217284437Y-88167829D01*
X217284181Y-88184272D01*
X217278189Y-88248361D01*
X217264575Y-88309737D01*
X217243597Y-88368235D01*
X217215777Y-88422791D01*
X217142072Y-88517030D01*
X217048806Y-88587549D01*
X216940999Y-88631300D01*
X216822452Y-88646301D01*
X216809362Y-88646126D01*
X216748465Y-88640581D01*
X216690526Y-88627517D01*
X216635522Y-88607101D01*
X216584411Y-88579797D01*
X216537396Y-88545786D01*
X216495215Y-88505586D01*
X216458302Y-88459561D01*
X216427132Y-88408120D01*
X216402242Y-88351888D01*
X216383942Y-88291054D01*
X216372728Y-88226449D01*
X216368893Y-88158059D01*
X216368896Y-88156090D01*
X216372997Y-88085669D01*
X216384447Y-88020760D01*
X216403225Y-87959746D01*
X216428415Y-87904581D01*
X216460843Y-87853190D01*
X216498729Y-87808206D01*
X216543566Y-87767843D01*
X216592643Y-87734579D01*
X216647077Y-87707576D01*
X216704066Y-87688241D01*
X216763005Y-87676532D01*
X216822452Y-87672626D01*
X216825803Y-87672637D01*
G37*
G36*
X219552216Y-87674203D02*
G01*
X219663216Y-87695749D01*
X219760697Y-87741030D01*
X219842072Y-87809461D01*
X219906425Y-87903110D01*
X219931600Y-87960688D01*
X219951569Y-88026534D01*
X219091957Y-88026534D01*
X219093924Y-88015551D01*
X219109567Y-87953135D01*
X219131278Y-87897443D01*
X219159143Y-87847396D01*
X219192241Y-87804013D01*
X219232033Y-87765445D01*
X219276362Y-87733844D01*
X219328227Y-87707474D01*
X219383805Y-87688654D01*
X219446662Y-87676584D01*
X219511932Y-87672626D01*
X219552216Y-87674203D01*
G37*
G36*
X222014184Y-87674203D02*
G01*
X222125183Y-87695749D01*
X222222665Y-87741030D01*
X222304040Y-87809461D01*
X222368393Y-87903110D01*
X222393568Y-87960688D01*
X222413537Y-88026534D01*
X221553924Y-88026534D01*
X221555892Y-88015551D01*
X221571535Y-87953135D01*
X221593246Y-87897443D01*
X221621111Y-87847396D01*
X221654209Y-87804013D01*
X221694001Y-87765445D01*
X221738330Y-87733844D01*
X221790195Y-87707474D01*
X221845772Y-87688654D01*
X221908630Y-87676584D01*
X221973900Y-87672626D01*
X222014184Y-87674203D01*
G37*
G36*
X227743405Y-88048394D02*
G01*
X227267375Y-88048394D01*
X227502581Y-87411409D01*
X227508199Y-87411409D01*
X227743405Y-88048394D01*
G37*
G36*
X214576500Y-84314203D02*
G01*
X214687500Y-84335749D01*
X214784981Y-84381030D01*
X214866356Y-84449461D01*
X214930710Y-84543110D01*
X214955885Y-84600688D01*
X214975854Y-84666534D01*
X214116241Y-84666534D01*
X214118208Y-84655551D01*
X214133852Y-84593135D01*
X214155563Y-84537443D01*
X214183428Y-84487396D01*
X214216525Y-84444013D01*
X214256317Y-84405445D01*
X214300646Y-84373844D01*
X214352511Y-84347474D01*
X214408089Y-84328654D01*
X214470946Y-84316584D01*
X214536217Y-84312626D01*
X214576500Y-84314203D01*
G37*
G36*
X218731874Y-84312637D02*
G01*
X218795255Y-84317016D01*
X218854000Y-84328885D01*
X218910648Y-84348677D01*
X218962147Y-84375234D01*
X219011611Y-84410352D01*
X219055106Y-84451434D01*
X219095178Y-84501186D01*
X219128285Y-84555584D01*
X219155470Y-84616314D01*
X219174928Y-84679527D01*
X219190508Y-84807829D01*
X219190252Y-84824272D01*
X219184259Y-84888361D01*
X219170646Y-84949737D01*
X219149668Y-85008235D01*
X219121848Y-85062791D01*
X219048143Y-85157030D01*
X218954877Y-85227549D01*
X218847070Y-85271300D01*
X218728523Y-85286301D01*
X218715433Y-85286126D01*
X218654536Y-85280581D01*
X218596597Y-85267517D01*
X218541593Y-85247101D01*
X218490482Y-85219797D01*
X218443467Y-85185786D01*
X218401286Y-85145586D01*
X218364373Y-85099561D01*
X218333203Y-85048120D01*
X218308313Y-84991888D01*
X218290013Y-84931054D01*
X218278799Y-84866449D01*
X218274964Y-84798059D01*
X218274967Y-84796090D01*
X218279068Y-84725669D01*
X218290518Y-84660760D01*
X218309296Y-84599746D01*
X218334486Y-84544581D01*
X218366914Y-84493190D01*
X218404800Y-84448206D01*
X218449637Y-84407843D01*
X218498714Y-84374579D01*
X218553148Y-84347576D01*
X218610137Y-84328241D01*
X218669076Y-84316532D01*
X218728523Y-84312626D01*
X218731874Y-84312637D01*
G37*
G36*
X222872279Y-84312637D02*
G01*
X222935660Y-84317016D01*
X222994405Y-84328885D01*
X223051053Y-84348677D01*
X223102551Y-84375234D01*
X223152016Y-84410352D01*
X223195511Y-84451434D01*
X223235583Y-84501186D01*
X223268690Y-84555584D01*
X223295875Y-84616314D01*
X223315333Y-84679527D01*
X223330913Y-84807829D01*
X223330657Y-84824272D01*
X223324664Y-84888361D01*
X223311051Y-84949737D01*
X223290073Y-85008235D01*
X223262253Y-85062791D01*
X223188548Y-85157030D01*
X223095281Y-85227549D01*
X222987474Y-85271300D01*
X222868928Y-85286301D01*
X222855838Y-85286126D01*
X222794941Y-85280581D01*
X222737002Y-85267517D01*
X222681998Y-85247101D01*
X222630887Y-85219797D01*
X222583871Y-85185786D01*
X222541690Y-85145586D01*
X222504778Y-85099561D01*
X222473607Y-85048120D01*
X222448718Y-84991888D01*
X222430418Y-84931054D01*
X222419204Y-84866449D01*
X222415369Y-84798059D01*
X222415372Y-84796090D01*
X222419473Y-84725669D01*
X222430922Y-84660760D01*
X222449700Y-84599746D01*
X222474891Y-84544581D01*
X222507319Y-84493190D01*
X222545205Y-84448206D01*
X222590041Y-84407843D01*
X222639119Y-84374579D01*
X222693552Y-84347576D01*
X222750541Y-84328241D01*
X222809481Y-84316532D01*
X222868928Y-84312626D01*
X222872279Y-84312637D01*
G37*
G36*
X226342481Y-84312637D02*
G01*
X226405863Y-84317016D01*
X226464608Y-84328885D01*
X226521255Y-84348677D01*
X226572754Y-84375234D01*
X226622218Y-84410352D01*
X226665713Y-84451434D01*
X226705785Y-84501186D01*
X226738892Y-84555584D01*
X226766077Y-84616314D01*
X226785535Y-84679527D01*
X226801115Y-84807829D01*
X226800859Y-84824272D01*
X226794867Y-84888361D01*
X226781253Y-84949737D01*
X226760276Y-85008235D01*
X226732455Y-85062791D01*
X226658750Y-85157030D01*
X226565484Y-85227549D01*
X226457677Y-85271300D01*
X226339130Y-85286301D01*
X226326040Y-85286126D01*
X226265143Y-85280581D01*
X226207204Y-85267517D01*
X226152200Y-85247101D01*
X226101089Y-85219797D01*
X226054074Y-85185786D01*
X226011893Y-85145586D01*
X225974980Y-85099561D01*
X225943810Y-85048120D01*
X225918920Y-84991888D01*
X225900620Y-84931054D01*
X225889406Y-84866449D01*
X225885571Y-84798059D01*
X225885574Y-84796090D01*
X225889675Y-84725669D01*
X225901125Y-84660760D01*
X225919903Y-84599746D01*
X225945093Y-84544581D01*
X225977521Y-84493190D01*
X226015407Y-84448206D01*
X226060244Y-84407843D01*
X226109322Y-84374579D01*
X226163755Y-84347576D01*
X226220744Y-84328241D01*
X226279683Y-84316532D01*
X226339130Y-84312626D01*
X226342481Y-84312637D01*
G37*
G36*
X228997590Y-84316535D02*
G01*
X229055818Y-84327840D01*
X229113587Y-84347355D01*
X229166621Y-84373805D01*
X229217244Y-84408400D01*
X229262123Y-84448959D01*
X229302500Y-84496563D01*
X229336116Y-84548627D01*
X229362900Y-84604630D01*
X229382250Y-84663078D01*
X229397539Y-84779863D01*
X229397364Y-84795573D01*
X229391849Y-84867181D01*
X229379083Y-84932971D01*
X229358971Y-84994913D01*
X229332555Y-85050738D01*
X229298729Y-85102968D01*
X229259582Y-85148531D01*
X229213158Y-85189670D01*
X229162729Y-85223432D01*
X229106745Y-85250958D01*
X229048672Y-85270557D01*
X228989164Y-85282379D01*
X228929936Y-85286301D01*
X228915428Y-85286078D01*
X228855777Y-85280364D01*
X228798486Y-85267118D01*
X228693851Y-85219403D01*
X228606225Y-85145858D01*
X228570122Y-85100464D01*
X228539475Y-85049384D01*
X228515026Y-84993447D01*
X228496954Y-84932393D01*
X228485819Y-84866859D01*
X228481995Y-84796716D01*
X228482036Y-84789564D01*
X228486751Y-84721139D01*
X228498887Y-84657357D01*
X228518400Y-84597024D01*
X228544460Y-84541941D01*
X228577431Y-84490962D01*
X228615980Y-84445945D01*
X228660498Y-84406265D01*
X228709413Y-84373271D01*
X228762484Y-84346983D01*
X228818535Y-84327960D01*
X228935554Y-84312626D01*
X228997590Y-84316535D01*
G37*
G36*
X237241603Y-89514301D02*
G01*
X211830656Y-89514301D01*
X211830656Y-89292079D01*
X228534874Y-89292079D01*
X229934751Y-89292079D01*
X229934751Y-89152005D01*
X228534874Y-89152005D01*
X228534874Y-89292079D01*
X211830656Y-89292079D01*
X211830656Y-87698272D01*
X212368317Y-87698272D01*
X212480177Y-87714485D01*
X212564236Y-87749277D01*
X212624468Y-87797675D01*
X212664843Y-87854709D01*
X212689333Y-87915407D01*
X212701909Y-87974797D01*
X212707204Y-88069765D01*
X212707204Y-88940980D01*
X213079553Y-88940980D01*
X213079553Y-88156716D01*
X213325749Y-88156716D01*
X213325786Y-88165020D01*
X213325787Y-88165361D01*
X213330488Y-88252297D01*
X213342756Y-88335220D01*
X213362608Y-88415441D01*
X213389435Y-88491154D01*
X213423647Y-88563798D01*
X213464217Y-88631358D01*
X213511844Y-88695077D01*
X213565120Y-88753078D01*
X213624716Y-88806121D01*
X213689103Y-88852810D01*
X213758493Y-88893331D01*
X213831657Y-88926934D01*
X213987018Y-88972520D01*
X214148970Y-88987874D01*
X214160533Y-88987795D01*
X214242531Y-88982612D01*
X214322055Y-88969628D01*
X214400761Y-88948614D01*
X214476100Y-88920261D01*
X214549150Y-88884202D01*
X214617881Y-88841435D01*
X214682519Y-88791897D01*
X214741908Y-88736489D01*
X214843009Y-88610395D01*
X214917296Y-88469024D01*
X214962514Y-88318065D01*
X214977686Y-88162211D01*
X214977579Y-88148643D01*
X214972241Y-88065915D01*
X214959147Y-87985900D01*
X214938094Y-87906993D01*
X214909764Y-87831631D01*
X214873775Y-87758671D01*
X214831134Y-87690147D01*
X214781669Y-87625667D01*
X214726366Y-87566505D01*
X214600140Y-87465630D01*
X214458155Y-87391384D01*
X214438864Y-87385641D01*
X215048761Y-87385641D01*
X215048761Y-87713903D01*
X215272731Y-87713903D01*
X215272731Y-88940980D01*
X215645202Y-88940980D01*
X215645202Y-87713903D01*
X215827162Y-87713903D01*
X215827162Y-87385641D01*
X216016084Y-87385641D01*
X216016084Y-88158059D01*
X216016084Y-88940980D01*
X216357658Y-88940980D01*
X216357658Y-88744364D01*
X216367944Y-88756196D01*
X216418330Y-88805247D01*
X216476899Y-88850061D01*
X216544537Y-88891255D01*
X216617402Y-88926243D01*
X216765531Y-88973001D01*
X216900854Y-88987874D01*
X217047892Y-88973235D01*
X217121054Y-88954471D01*
X217191635Y-88928331D01*
X217322383Y-88855171D01*
X217435912Y-88756309D01*
X217528787Y-88634384D01*
X217566480Y-88565743D01*
X217598212Y-88491724D01*
X217623298Y-88413411D01*
X217641705Y-88330171D01*
X217652947Y-88242898D01*
X217656786Y-88151098D01*
X217642597Y-87987843D01*
X217624106Y-87906501D01*
X217598522Y-87829186D01*
X217565878Y-87755504D01*
X217533431Y-87698272D01*
X217739706Y-87698272D01*
X217851565Y-87714485D01*
X217935625Y-87749277D01*
X217995857Y-87797675D01*
X218036232Y-87854709D01*
X218060722Y-87915407D01*
X218073298Y-87974797D01*
X218078593Y-88069765D01*
X218078593Y-88940980D01*
X218450941Y-88940980D01*
X218450941Y-88138642D01*
X218711182Y-88138642D01*
X218718143Y-88240812D01*
X218733530Y-88326220D01*
X219940334Y-88326220D01*
X219936011Y-88345270D01*
X219892704Y-88436787D01*
X219819896Y-88523860D01*
X219729375Y-88590428D01*
X219626396Y-88631905D01*
X219511932Y-88646301D01*
X219407476Y-88635885D01*
X219304338Y-88599051D01*
X219259662Y-88570977D01*
X219219800Y-88536663D01*
X219183951Y-88494982D01*
X219153506Y-88446998D01*
X218761496Y-88446998D01*
X218780658Y-88499282D01*
X218813458Y-88567910D01*
X218854026Y-88634220D01*
X218955797Y-88755709D01*
X219078641Y-88855410D01*
X219215473Y-88928503D01*
X219360990Y-88972923D01*
X219511932Y-88987874D01*
X219521261Y-88987826D01*
X219605209Y-88982990D01*
X219686078Y-88970489D01*
X219764892Y-88950294D01*
X219790447Y-88940980D01*
X220565718Y-88940980D01*
X220938066Y-88940980D01*
X220938066Y-88138642D01*
X221173150Y-88138642D01*
X221180111Y-88240812D01*
X221195498Y-88326220D01*
X222402302Y-88326220D01*
X222397979Y-88345270D01*
X222354672Y-88436787D01*
X222281864Y-88523860D01*
X222191343Y-88590428D01*
X222088364Y-88631905D01*
X221973900Y-88646301D01*
X221869444Y-88635885D01*
X221766306Y-88599051D01*
X221721630Y-88570977D01*
X221681768Y-88536663D01*
X221645919Y-88494982D01*
X221615474Y-88446998D01*
X221223464Y-88446998D01*
X221242626Y-88499282D01*
X221275426Y-88567910D01*
X221315994Y-88634220D01*
X221417765Y-88755709D01*
X221540609Y-88855410D01*
X221677441Y-88928503D01*
X221822958Y-88972923D01*
X221973900Y-88987874D01*
X221983229Y-88987826D01*
X222067176Y-88982990D01*
X222148046Y-88970489D01*
X222226860Y-88950294D01*
X222301878Y-88922952D01*
X222373865Y-88888274D01*
X222441297Y-88847046D01*
X222504480Y-88799158D01*
X222562353Y-88745434D01*
X222614730Y-88686116D01*
X222661095Y-88621790D01*
X222734155Y-88480574D01*
X222779087Y-88326464D01*
X222794312Y-88163799D01*
X222794027Y-88141321D01*
X222787938Y-88057819D01*
X222774113Y-87976109D01*
X222753476Y-87899284D01*
X222964915Y-87899284D01*
X223384891Y-87899284D01*
X223404339Y-87866255D01*
X223464721Y-87786181D01*
X223539238Y-87725719D01*
X223631280Y-87686821D01*
X223685125Y-87676355D01*
X223746004Y-87672626D01*
X223766496Y-87673083D01*
X223882979Y-87693545D01*
X223987578Y-87742032D01*
X224074450Y-87814855D01*
X224140154Y-87909252D01*
X224164168Y-87963901D01*
X224182029Y-88024054D01*
X224193067Y-88089068D01*
X224196876Y-88159402D01*
X224196282Y-88185254D01*
X224189368Y-88250340D01*
X224174973Y-88312654D01*
X224125578Y-88425637D01*
X224052395Y-88518673D01*
X223959832Y-88588037D01*
X223851371Y-88631307D01*
X223792086Y-88642472D01*
X223729273Y-88646301D01*
X223653888Y-88638594D01*
X223557882Y-88603154D01*
X223512209Y-88573853D01*
X223468111Y-88536028D01*
X223425334Y-88488393D01*
X223384891Y-88430878D01*
X222964915Y-88430878D01*
X222986603Y-88485619D01*
X223066829Y-88633549D01*
X223168095Y-88757195D01*
X223288107Y-88855641D01*
X223354523Y-88895095D01*
X223424981Y-88927864D01*
X223499294Y-88953755D01*
X223577153Y-88972527D01*
X223658641Y-88984002D01*
X223743195Y-88987874D01*
X223769415Y-88987414D01*
X223848229Y-88980592D01*
X223926797Y-88965769D01*
X224080364Y-88912823D01*
X224221051Y-88832010D01*
X224342051Y-88728060D01*
X224439232Y-88605512D01*
X224510402Y-88467785D01*
X224554209Y-88316943D01*
X224569225Y-88153907D01*
X224569211Y-88149132D01*
X224564717Y-88066553D01*
X224552463Y-87986938D01*
X224532207Y-87908347D01*
X224528875Y-87899284D01*
X224756681Y-87899284D01*
X225176657Y-87899284D01*
X225196104Y-87866255D01*
X225256486Y-87786181D01*
X225331004Y-87725719D01*
X225423045Y-87686821D01*
X225476891Y-87676355D01*
X225537770Y-87672626D01*
X225558261Y-87673083D01*
X225674745Y-87693545D01*
X225779344Y-87742032D01*
X225866215Y-87814855D01*
X225931920Y-87909252D01*
X225955934Y-87963901D01*
X225973795Y-88024054D01*
X225984832Y-88089068D01*
X225988642Y-88159402D01*
X225988047Y-88185254D01*
X225981134Y-88250340D01*
X225966738Y-88312654D01*
X225917344Y-88425637D01*
X225844161Y-88518673D01*
X225751598Y-88588037D01*
X225643137Y-88631307D01*
X225583851Y-88642472D01*
X225521039Y-88646301D01*
X225445653Y-88638594D01*
X225349648Y-88603154D01*
X225303975Y-88573853D01*
X225259877Y-88536028D01*
X225217099Y-88488393D01*
X225176657Y-88430878D01*
X224756681Y-88430878D01*
X224778368Y-88485619D01*
X224858594Y-88633549D01*
X224959861Y-88757195D01*
X225079873Y-88855641D01*
X225146288Y-88895095D01*
X225216747Y-88927864D01*
X225291059Y-88953755D01*
X225368918Y-88972527D01*
X225450407Y-88984002D01*
X225534961Y-88987874D01*
X225561180Y-88987414D01*
X225639995Y-88980592D01*
X225718563Y-88965769D01*
X225790462Y-88940980D01*
X226486165Y-88940980D01*
X226908949Y-88940980D01*
X227130233Y-88409507D01*
X227872243Y-88409507D01*
X228093405Y-88940980D01*
X228516189Y-88940980D01*
X228366994Y-88582675D01*
X229947818Y-88582675D01*
X229947818Y-88940980D01*
X230964235Y-88940980D01*
X231340858Y-88940980D01*
X231724441Y-88940980D01*
X231724441Y-87387839D01*
X231732867Y-87387839D01*
X232262019Y-88940980D01*
X232586862Y-88940980D01*
X233118823Y-87387839D01*
X233124441Y-87387839D01*
X233124441Y-88940980D01*
X233508024Y-88940980D01*
X233508024Y-87228227D01*
X233688398Y-87228227D01*
X234074790Y-87228227D01*
X234074790Y-88940980D01*
X234458373Y-88940980D01*
X235053959Y-88940980D01*
X235437543Y-88940980D01*
X235437543Y-88072330D01*
X236179553Y-88072330D01*
X236179553Y-88940980D01*
X236563136Y-88940980D01*
X236563136Y-86869800D01*
X236179553Y-86869800D01*
X236179553Y-87713903D01*
X235437543Y-87713903D01*
X235437543Y-86869800D01*
X235053959Y-86869800D01*
X235053959Y-88940980D01*
X234458373Y-88940980D01*
X234458373Y-87228227D01*
X234841957Y-87228227D01*
X234841957Y-86869800D01*
X233688398Y-86869800D01*
X233688398Y-87228227D01*
X233508024Y-87228227D01*
X233508024Y-86869800D01*
X232976063Y-86869800D01*
X232424441Y-88437351D01*
X232418823Y-88437351D01*
X231872818Y-86869800D01*
X231340858Y-86869800D01*
X231340858Y-88940980D01*
X230964235Y-88940980D01*
X230964235Y-86869800D01*
X230580652Y-86869800D01*
X230580652Y-88582675D01*
X229947818Y-88582675D01*
X228366994Y-88582675D01*
X227653767Y-86869800D01*
X227354204Y-86869800D01*
X226860251Y-88048394D01*
X226486165Y-88940980D01*
X225790462Y-88940980D01*
X225872130Y-88912823D01*
X226012816Y-88832010D01*
X226133816Y-88728060D01*
X226230998Y-88605512D01*
X226302167Y-88467785D01*
X226345974Y-88316943D01*
X226360990Y-88153907D01*
X226360977Y-88149132D01*
X226356482Y-88066553D01*
X226344228Y-87986938D01*
X226323972Y-87908347D01*
X226296445Y-87833475D01*
X226261051Y-87760646D01*
X226219003Y-87692381D01*
X226169725Y-87627690D01*
X226114614Y-87568437D01*
X226053653Y-87514495D01*
X225987901Y-87466786D01*
X225845113Y-87391787D01*
X225693038Y-87346160D01*
X225537770Y-87330931D01*
X225428698Y-87338955D01*
X225279339Y-87373259D01*
X225139574Y-87432328D01*
X225015874Y-87514166D01*
X224910160Y-87618281D01*
X224823317Y-87745806D01*
X224787533Y-87818679D01*
X224756681Y-87899284D01*
X224528875Y-87899284D01*
X224504679Y-87833475D01*
X224469286Y-87760646D01*
X224427237Y-87692381D01*
X224377959Y-87627690D01*
X224322849Y-87568437D01*
X224261887Y-87514495D01*
X224196135Y-87466786D01*
X224053347Y-87391787D01*
X223901273Y-87346160D01*
X223746004Y-87330931D01*
X223636933Y-87338955D01*
X223487573Y-87373259D01*
X223347808Y-87432328D01*
X223224108Y-87514166D01*
X223118394Y-87618281D01*
X223031551Y-87745806D01*
X222995767Y-87818679D01*
X222964915Y-87899284D01*
X222753476Y-87899284D01*
X222752758Y-87896612D01*
X222724141Y-87820037D01*
X222647015Y-87679200D01*
X222546511Y-87558522D01*
X222426464Y-87461415D01*
X222290093Y-87390059D01*
X222139695Y-87346030D01*
X222059954Y-87334772D01*
X221976709Y-87330931D01*
X221827664Y-87343459D01*
X221748627Y-87361234D01*
X221674247Y-87386069D01*
X221602094Y-87418738D01*
X221535161Y-87457852D01*
X221471048Y-87504857D01*
X221412839Y-87557559D01*
X221358733Y-87617647D01*
X221311263Y-87682416D01*
X221269593Y-87752955D01*
X221235193Y-87826824D01*
X221208073Y-87903654D01*
X221188597Y-87982210D01*
X221184220Y-88026534D01*
X221173150Y-88138642D01*
X220938066Y-88138642D01*
X220938066Y-86869800D01*
X220565718Y-86869800D01*
X220565718Y-88940980D01*
X219790447Y-88940980D01*
X219839910Y-88922952D01*
X219911897Y-88888274D01*
X219979329Y-88847046D01*
X220042512Y-88799158D01*
X220100385Y-88745434D01*
X220152762Y-88686116D01*
X220199127Y-88621790D01*
X220272187Y-88480574D01*
X220317119Y-88326464D01*
X220332344Y-88163799D01*
X220332059Y-88141321D01*
X220325971Y-88057819D01*
X220312146Y-87976109D01*
X220290790Y-87896612D01*
X220262173Y-87820037D01*
X220185047Y-87679200D01*
X220084543Y-87558522D01*
X219964496Y-87461415D01*
X219828125Y-87390059D01*
X219677727Y-87346030D01*
X219597986Y-87334772D01*
X219514741Y-87330931D01*
X219365696Y-87343459D01*
X219286659Y-87361234D01*
X219212279Y-87386069D01*
X219140126Y-87418738D01*
X219073193Y-87457852D01*
X219009080Y-87504857D01*
X218950871Y-87557559D01*
X218896765Y-87617647D01*
X218849295Y-87682416D01*
X218807625Y-87752955D01*
X218773225Y-87826824D01*
X218746105Y-87903654D01*
X218726629Y-87982210D01*
X218722252Y-88026534D01*
X218711182Y-88138642D01*
X218450941Y-88138642D01*
X218450941Y-87385641D01*
X218109368Y-87385641D01*
X218109368Y-87524615D01*
X218103750Y-87524615D01*
X218044351Y-87445319D01*
X217975348Y-87383868D01*
X217935798Y-87362075D01*
X217889688Y-87345470D01*
X217834793Y-87334702D01*
X217770603Y-87330931D01*
X217739706Y-87330931D01*
X217739706Y-87698272D01*
X217533431Y-87698272D01*
X217526802Y-87686580D01*
X217481465Y-87622450D01*
X217430451Y-87563785D01*
X217313255Y-87464334D01*
X217179459Y-87391106D01*
X217033285Y-87346166D01*
X216878506Y-87330931D01*
X216857350Y-87331270D01*
X216779656Y-87338465D01*
X216707984Y-87353743D01*
X216628992Y-87380880D01*
X216559570Y-87414500D01*
X216475295Y-87469527D01*
X216413680Y-87522252D01*
X216363276Y-87580180D01*
X216357658Y-87580180D01*
X216357658Y-87385641D01*
X216016084Y-87385641D01*
X215827162Y-87385641D01*
X215645202Y-87385641D01*
X215645202Y-86869800D01*
X215272731Y-86869800D01*
X215272731Y-87385641D01*
X215048761Y-87385641D01*
X214438864Y-87385641D01*
X214306131Y-87346125D01*
X214148970Y-87330931D01*
X214133242Y-87331080D01*
X214051856Y-87336657D01*
X213972354Y-87350045D01*
X213894062Y-87371290D01*
X213818709Y-87399905D01*
X213746464Y-87435732D01*
X213678202Y-87478303D01*
X213556423Y-87581504D01*
X213457800Y-87704997D01*
X213385326Y-87844347D01*
X213340862Y-87995839D01*
X213325749Y-88156716D01*
X213079553Y-88156716D01*
X213079553Y-87385641D01*
X212737979Y-87385641D01*
X212737979Y-87524615D01*
X212732361Y-87524615D01*
X212672963Y-87445319D01*
X212603959Y-87383868D01*
X212564410Y-87362075D01*
X212518299Y-87345470D01*
X212463404Y-87334702D01*
X212399214Y-87330931D01*
X212368317Y-87330931D01*
X212368317Y-87698272D01*
X211830656Y-87698272D01*
X211830656Y-84025641D01*
X212052878Y-84025641D01*
X212946074Y-86096820D01*
X213346388Y-86096820D01*
X213060868Y-85433579D01*
X213325251Y-84778642D01*
X213735466Y-84778642D01*
X213742427Y-84880812D01*
X213757815Y-84966220D01*
X214964619Y-84966220D01*
X214960296Y-84985270D01*
X214916989Y-85076787D01*
X214844180Y-85163860D01*
X214753660Y-85230428D01*
X214650681Y-85271905D01*
X214536217Y-85286301D01*
X214431760Y-85275885D01*
X214328623Y-85239051D01*
X214283947Y-85210977D01*
X214244085Y-85176663D01*
X214208236Y-85134982D01*
X214177790Y-85086998D01*
X213785781Y-85086998D01*
X213804942Y-85139282D01*
X213837743Y-85207910D01*
X213878310Y-85274220D01*
X213980081Y-85395709D01*
X214102926Y-85495410D01*
X214239758Y-85568503D01*
X214385275Y-85612923D01*
X214536217Y-85627874D01*
X214545545Y-85627826D01*
X214629493Y-85622990D01*
X214710362Y-85610489D01*
X214789176Y-85590294D01*
X214814731Y-85580980D01*
X215590002Y-85580980D01*
X215962351Y-85580980D01*
X215962351Y-84739197D01*
X216260449Y-84739197D01*
X216260449Y-85580980D01*
X216632797Y-85580980D01*
X216632797Y-84812103D01*
X216632918Y-84780341D01*
X216642408Y-84638770D01*
X216669873Y-84519980D01*
X216713398Y-84430468D01*
X216771839Y-84367100D01*
X216847529Y-84327237D01*
X216893855Y-84316407D01*
X216946405Y-84312626D01*
X216973628Y-84314245D01*
X217063541Y-84337960D01*
X217142222Y-84384612D01*
X217201272Y-84450135D01*
X217240103Y-84532771D01*
X217260043Y-84631470D01*
X217267390Y-84737016D01*
X217268439Y-84840191D01*
X217268439Y-85580980D01*
X217640787Y-85580980D01*
X217640787Y-84025641D01*
X217922155Y-84025641D01*
X217922155Y-84798059D01*
X217922155Y-85580980D01*
X218263729Y-85580980D01*
X218263729Y-85384364D01*
X218274015Y-85396196D01*
X218324401Y-85445247D01*
X218382970Y-85490061D01*
X218450608Y-85531255D01*
X218523473Y-85566243D01*
X218671602Y-85613001D01*
X218806925Y-85627874D01*
X218953963Y-85613235D01*
X219027125Y-85594471D01*
X219097706Y-85568331D01*
X219228454Y-85495171D01*
X219341983Y-85396309D01*
X219434858Y-85274384D01*
X219472551Y-85205743D01*
X219504283Y-85131724D01*
X219529369Y-85053411D01*
X219547776Y-84970171D01*
X219559018Y-84882898D01*
X219562857Y-84791098D01*
X219548668Y-84627843D01*
X219530177Y-84546501D01*
X219504593Y-84469186D01*
X219471949Y-84395504D01*
X219432873Y-84326580D01*
X219387536Y-84262450D01*
X219336522Y-84203785D01*
X219219326Y-84104334D01*
X219085530Y-84031106D01*
X219067754Y-84025641D01*
X219639549Y-84025641D01*
X219639549Y-84353903D01*
X219863520Y-84353903D01*
X219863520Y-85580980D01*
X220235990Y-85580980D01*
X220235990Y-84960725D01*
X220552040Y-84960725D01*
X220552384Y-84984928D01*
X220558533Y-85063554D01*
X220571974Y-85136848D01*
X220592791Y-85206530D01*
X220620163Y-85270666D01*
X220655095Y-85331702D01*
X220695903Y-85386774D01*
X220744677Y-85438509D01*
X220798529Y-85483672D01*
X220860182Y-85524342D01*
X220925772Y-85557759D01*
X220997409Y-85584941D01*
X221071333Y-85604346D01*
X221147583Y-85616140D01*
X221224074Y-85620058D01*
X221258430Y-85619090D01*
X221402145Y-85595712D01*
X221538948Y-85544214D01*
X221657865Y-85469665D01*
X221754628Y-85375852D01*
X221827881Y-85264406D01*
X221876613Y-85134972D01*
X221891181Y-85063167D01*
X221898795Y-84985760D01*
X221495672Y-84985760D01*
X221490297Y-85024763D01*
X221476591Y-85078102D01*
X221457056Y-85123713D01*
X221430816Y-85164240D01*
X221399973Y-85196987D01*
X221361150Y-85225101D01*
X221319289Y-85244758D01*
X221270232Y-85257676D01*
X221221265Y-85261754D01*
X221149685Y-85253861D01*
X221060489Y-85218551D01*
X220992679Y-85161235D01*
X220950357Y-85088130D01*
X220935623Y-85002490D01*
X220941331Y-84934352D01*
X220958342Y-84878364D01*
X220986490Y-84832247D01*
X221025606Y-84793721D01*
X221075523Y-84760505D01*
X221136074Y-84730320D01*
X221288409Y-84669923D01*
X221330442Y-84654078D01*
X221360116Y-84642894D01*
X221508440Y-84580416D01*
X221618810Y-84511697D01*
X221704726Y-84428963D01*
X221768063Y-84329287D01*
X221791161Y-84272187D01*
X221808562Y-84208360D01*
X221819418Y-84138140D01*
X221823202Y-84060446D01*
X221819688Y-84025641D01*
X222062560Y-84025641D01*
X222062560Y-84798059D01*
X222062560Y-85580980D01*
X222404134Y-85580980D01*
X222404134Y-85384364D01*
X222414419Y-85396196D01*
X222464806Y-85445247D01*
X222523375Y-85490061D01*
X222591013Y-85531255D01*
X222663877Y-85566243D01*
X222812006Y-85613001D01*
X222947330Y-85627874D01*
X223094368Y-85613235D01*
X223167529Y-85594471D01*
X223203957Y-85580980D01*
X223803889Y-85580980D01*
X224274301Y-85580980D01*
X224800644Y-84852403D01*
X224806262Y-84852403D01*
X224806262Y-85580980D01*
X225178610Y-85580980D01*
X225178610Y-84025641D01*
X225532762Y-84025641D01*
X225532762Y-84798059D01*
X225532762Y-85580980D01*
X225874336Y-85580980D01*
X225874336Y-85384364D01*
X225884622Y-85396196D01*
X225935009Y-85445247D01*
X225993577Y-85490061D01*
X226061215Y-85531255D01*
X226134080Y-85566243D01*
X226282209Y-85613001D01*
X226417532Y-85627874D01*
X226564570Y-85613235D01*
X226637732Y-85594471D01*
X226708313Y-85568331D01*
X226839061Y-85495171D01*
X226952590Y-85396309D01*
X227045465Y-85274384D01*
X227083158Y-85205743D01*
X227114890Y-85131724D01*
X227139976Y-85053411D01*
X227158383Y-84970171D01*
X227169625Y-84882898D01*
X227173347Y-84793907D01*
X228109524Y-84793907D01*
X228109583Y-84796716D01*
X228110163Y-84824477D01*
X228132453Y-84987588D01*
X228183451Y-85147846D01*
X228257499Y-85290134D01*
X228350010Y-85408668D01*
X228458467Y-85502112D01*
X228582380Y-85570403D01*
X228722898Y-85612974D01*
X228799946Y-85624058D01*
X228882309Y-85627874D01*
X228903853Y-85627639D01*
X228988041Y-85621778D01*
X229062762Y-85608833D01*
X229181103Y-85568708D01*
X229274054Y-85514115D01*
X229347159Y-85452169D01*
X229405965Y-85389982D01*
X229405965Y-85580980D01*
X229747539Y-85580980D01*
X230034402Y-85580980D01*
X230375976Y-85580980D01*
X230375976Y-85420756D01*
X230381593Y-85420756D01*
X230392024Y-85434816D01*
X230463353Y-85515009D01*
X230547733Y-85574892D01*
X230651687Y-85613655D01*
X230712824Y-85624143D01*
X230782030Y-85627874D01*
X230925647Y-85614778D01*
X231000569Y-85595980D01*
X231067398Y-85570685D01*
X231135467Y-85534904D01*
X231193554Y-85494420D01*
X231255748Y-85437626D01*
X231302755Y-85381555D01*
X231340646Y-85315996D01*
X231369121Y-85244785D01*
X231403200Y-85095226D01*
X231415756Y-84952514D01*
X231417550Y-84836283D01*
X231417550Y-84702682D01*
X231707222Y-84702682D01*
X231707222Y-85580980D01*
X232079570Y-85580980D01*
X232079570Y-84784015D01*
X232087432Y-84628529D01*
X232112782Y-84513747D01*
X232154791Y-84428011D01*
X232213423Y-84366624D01*
X232249839Y-84344215D01*
X232292312Y-84327271D01*
X232341969Y-84316411D01*
X232398795Y-84312626D01*
X232453998Y-84316534D01*
X232502310Y-84327713D01*
X232544191Y-84345345D01*
X232580100Y-84368611D01*
X232635839Y-84428778D01*
X232673202Y-84501670D01*
X232695865Y-84580745D01*
X232707503Y-84659459D01*
X232712403Y-84789633D01*
X232712403Y-85580980D01*
X233084751Y-85580980D01*
X233084751Y-84025641D01*
X233237037Y-84025641D01*
X233237037Y-84353903D01*
X233461007Y-84353903D01*
X233461007Y-85580980D01*
X233833478Y-85580980D01*
X234223656Y-85580980D01*
X234596004Y-85580980D01*
X234596004Y-84525850D01*
X234807518Y-84525850D01*
X234807518Y-84570669D01*
X234807965Y-84600554D01*
X234814697Y-84689973D01*
X234829227Y-84776984D01*
X234851922Y-84863725D01*
X234882062Y-84947322D01*
X234920357Y-85029630D01*
X234965632Y-85107974D01*
X235018607Y-85183551D01*
X235077921Y-85254304D01*
X235143848Y-85320582D01*
X235215276Y-85381213D01*
X235372516Y-85484019D01*
X235543647Y-85559228D01*
X235722810Y-85604828D01*
X235905023Y-85620058D01*
X235968886Y-85618298D01*
X236064705Y-85608994D01*
X236158474Y-85591951D01*
X236250795Y-85567131D01*
X236340107Y-85534984D01*
X236426179Y-85495696D01*
X236508301Y-85449644D01*
X236657899Y-85339287D01*
X236784716Y-85207947D01*
X236885813Y-85059704D01*
X236959357Y-84898145D01*
X237004198Y-84726079D01*
X237019381Y-84545512D01*
X237018443Y-84500823D01*
X237010540Y-84409047D01*
X236994905Y-84319917D01*
X236971213Y-84231490D01*
X236940173Y-84146425D01*
X236901174Y-84063070D01*
X236855317Y-83983861D01*
X236802002Y-83907762D01*
X236742476Y-83836623D01*
X236676551Y-83770174D01*
X236605232Y-83709457D01*
X236448496Y-83606687D01*
X236277885Y-83531554D01*
X236098897Y-83485968D01*
X235916259Y-83470721D01*
X235737028Y-83484950D01*
X235642130Y-83504486D01*
X235551680Y-83531407D01*
X235460983Y-83567163D01*
X235375806Y-83609518D01*
X235292234Y-83660394D01*
X235215428Y-83716633D01*
X235143321Y-83779474D01*
X235079177Y-83845846D01*
X235023252Y-83914749D01*
X234976032Y-83984921D01*
X234911077Y-84119064D01*
X235370254Y-84119064D01*
X235428216Y-84044797D01*
X235530343Y-83954182D01*
X235649628Y-83886021D01*
X235781571Y-83843714D01*
X235924685Y-83829148D01*
X235987936Y-83831626D01*
X236065058Y-83841792D01*
X236137410Y-83859267D01*
X236207834Y-83884677D01*
X236273002Y-83916750D01*
X236336195Y-83957193D01*
X236393443Y-84003558D01*
X236447694Y-84058399D01*
X236495164Y-84118082D01*
X236537661Y-84184918D01*
X236572595Y-84254955D01*
X236600395Y-84328575D01*
X236620227Y-84403228D01*
X236635798Y-84548321D01*
X236628205Y-84648132D01*
X236590868Y-84793394D01*
X236525834Y-84927569D01*
X236437814Y-85042889D01*
X236330521Y-85135633D01*
X236205926Y-85204088D01*
X236064371Y-85246841D01*
X235987195Y-85257936D01*
X235905023Y-85261754D01*
X235875780Y-85261144D01*
X235801998Y-85254113D01*
X235729973Y-85239393D01*
X235593673Y-85187863D01*
X235472456Y-85109320D01*
X235370767Y-85007079D01*
X235291852Y-84884277D01*
X236159891Y-84884277D01*
X236159891Y-84525850D01*
X234807518Y-84525850D01*
X234596004Y-84525850D01*
X234596004Y-84025641D01*
X234223656Y-84025641D01*
X234223656Y-85580980D01*
X233833478Y-85580980D01*
X233833478Y-84353903D01*
X234015439Y-84353903D01*
X234015439Y-84025641D01*
X233833478Y-84025641D01*
X233833478Y-83851496D01*
X234223656Y-83851496D01*
X234596004Y-83851496D01*
X234596004Y-83509800D01*
X234223656Y-83509800D01*
X234223656Y-83851496D01*
X233833478Y-83851496D01*
X233833478Y-83509800D01*
X233461007Y-83509800D01*
X233461007Y-84025641D01*
X233237037Y-84025641D01*
X233084751Y-84025641D01*
X233084751Y-83509800D01*
X232712403Y-83509800D01*
X232712403Y-84133352D01*
X232711341Y-84132353D01*
X232652124Y-84081432D01*
X232556063Y-84023339D01*
X232441711Y-83984787D01*
X232309158Y-83970931D01*
X232309090Y-83970931D01*
X232242768Y-83975380D01*
X232175784Y-83988326D01*
X232107488Y-84009899D01*
X232041088Y-84039228D01*
X231922155Y-84116287D01*
X231830442Y-84208945D01*
X231789770Y-84270497D01*
X231759205Y-84336118D01*
X231722624Y-84471522D01*
X231709147Y-84599072D01*
X231707222Y-84702682D01*
X231417550Y-84702682D01*
X231417550Y-84025641D01*
X231045201Y-84025641D01*
X231045201Y-84816744D01*
X231045139Y-84840605D01*
X231036492Y-84973208D01*
X231009727Y-85085175D01*
X230966046Y-85170682D01*
X230905886Y-85232302D01*
X230869023Y-85254724D01*
X230826171Y-85271717D01*
X230776730Y-85282524D01*
X230720358Y-85286301D01*
X230699025Y-85285675D01*
X230650205Y-85278969D01*
X230606534Y-85265329D01*
X230565656Y-85243889D01*
X230530079Y-85215860D01*
X230495893Y-85176952D01*
X230467827Y-85131277D01*
X230442037Y-85069716D01*
X230423725Y-85001402D01*
X230410826Y-84912988D01*
X230406750Y-84819552D01*
X230406750Y-84025641D01*
X230034402Y-84025641D01*
X230034402Y-85580980D01*
X229747539Y-85580980D01*
X229747539Y-83509800D01*
X229375191Y-83509800D01*
X229375191Y-84164249D01*
X229309974Y-84107691D01*
X229248543Y-84066837D01*
X229183189Y-84033210D01*
X229112385Y-84006008D01*
X229039432Y-83986559D01*
X228890735Y-83970931D01*
X228751465Y-83983298D01*
X228675561Y-84001231D01*
X228603617Y-84026429D01*
X228533235Y-84059762D01*
X228467522Y-84099810D01*
X228404383Y-84147936D01*
X228346727Y-84202049D01*
X228293277Y-84263405D01*
X228246136Y-84329726D01*
X228205016Y-84401346D01*
X228170895Y-84476609D01*
X228124842Y-84634266D01*
X228109524Y-84793907D01*
X227173347Y-84793907D01*
X227173464Y-84791098D01*
X227159275Y-84627843D01*
X227140784Y-84546501D01*
X227115200Y-84469186D01*
X227082556Y-84395504D01*
X227043480Y-84326580D01*
X226998143Y-84262450D01*
X226947129Y-84203785D01*
X226829933Y-84104334D01*
X226696137Y-84031106D01*
X226549963Y-83986166D01*
X226395184Y-83970931D01*
X226374028Y-83971270D01*
X226296334Y-83978465D01*
X226224663Y-83993743D01*
X226145670Y-84020880D01*
X226076248Y-84054500D01*
X225991973Y-84109527D01*
X225930358Y-84162252D01*
X225879954Y-84220180D01*
X225874336Y-84220180D01*
X225874336Y-84025641D01*
X225532762Y-84025641D01*
X225178610Y-84025641D01*
X225178610Y-83509800D01*
X224806262Y-83509800D01*
X224806262Y-84757148D01*
X224800644Y-84757148D01*
X224305076Y-84025641D01*
X223876674Y-84025641D01*
X224436600Y-84787923D01*
X223803889Y-85580980D01*
X223203957Y-85580980D01*
X223238111Y-85568331D01*
X223368859Y-85495171D01*
X223482388Y-85396309D01*
X223575263Y-85274384D01*
X223612956Y-85205743D01*
X223644687Y-85131724D01*
X223669774Y-85053411D01*
X223688181Y-84970171D01*
X223699422Y-84882898D01*
X223703261Y-84791098D01*
X223689073Y-84627843D01*
X223670582Y-84546501D01*
X223644997Y-84469186D01*
X223612354Y-84395504D01*
X223573277Y-84326580D01*
X223527941Y-84262450D01*
X223476927Y-84203785D01*
X223359730Y-84104334D01*
X223225935Y-84031106D01*
X223079760Y-83986166D01*
X222924981Y-83970931D01*
X222903826Y-83971270D01*
X222826131Y-83978465D01*
X222754460Y-83993743D01*
X222675468Y-84020880D01*
X222606045Y-84054500D01*
X222521770Y-84109527D01*
X222460155Y-84162252D01*
X222409751Y-84220180D01*
X222404134Y-84220180D01*
X222404134Y-84025641D01*
X222062560Y-84025641D01*
X221819688Y-84025641D01*
X221810752Y-83937133D01*
X221793081Y-83871061D01*
X221768216Y-83808436D01*
X221736297Y-83749308D01*
X221697870Y-83694591D01*
X221603244Y-83600364D01*
X221488579Y-83529771D01*
X221358137Y-83485810D01*
X221288455Y-83474561D01*
X221215648Y-83470721D01*
X221087818Y-83485153D01*
X220955880Y-83529044D01*
X220839416Y-83597286D01*
X220744116Y-83685574D01*
X220671899Y-83791854D01*
X220623971Y-83916244D01*
X220609755Y-83985529D01*
X220602476Y-84060446D01*
X220994486Y-84060446D01*
X221014023Y-83968710D01*
X221033191Y-83928153D01*
X221057080Y-83895697D01*
X221089038Y-83867607D01*
X221124775Y-83848030D01*
X221175098Y-83833462D01*
X221226883Y-83829148D01*
X221236627Y-83829338D01*
X221279300Y-83834892D01*
X221318493Y-83847708D01*
X221383105Y-83892415D01*
X221424848Y-83957631D01*
X221435818Y-83996142D01*
X221439619Y-84038220D01*
X221433787Y-84097289D01*
X221416712Y-84145876D01*
X221389022Y-84185800D01*
X221351346Y-84218882D01*
X221248550Y-84271804D01*
X221113355Y-84319209D01*
X221095236Y-84325205D01*
X221015641Y-84352830D01*
X220877497Y-84415637D01*
X220763088Y-84492754D01*
X220673521Y-84583908D01*
X220607996Y-84690217D01*
X220566722Y-84814453D01*
X220555829Y-84884407D01*
X220552040Y-84960725D01*
X220235990Y-84960725D01*
X220235990Y-84353903D01*
X220417951Y-84353903D01*
X220417951Y-84025641D01*
X220235990Y-84025641D01*
X220235990Y-83509800D01*
X219863520Y-83509800D01*
X219863520Y-84025641D01*
X219639549Y-84025641D01*
X219067754Y-84025641D01*
X218939356Y-83986166D01*
X218784577Y-83970931D01*
X218763421Y-83971270D01*
X218685727Y-83978465D01*
X218614055Y-83993743D01*
X218535063Y-84020880D01*
X218465641Y-84054500D01*
X218381366Y-84109527D01*
X218319751Y-84162252D01*
X218269346Y-84220180D01*
X218263729Y-84220180D01*
X218263729Y-84025641D01*
X217922155Y-84025641D01*
X217640787Y-84025641D01*
X217296405Y-84025641D01*
X217296405Y-84158631D01*
X217292009Y-84154421D01*
X217214088Y-84086164D01*
X217113953Y-84024467D01*
X217000126Y-83984945D01*
X216870812Y-83970931D01*
X216864200Y-83970978D01*
X216732742Y-83988400D01*
X216603486Y-84033773D01*
X216492045Y-84101157D01*
X216403209Y-84186597D01*
X216356087Y-84254445D01*
X216320676Y-84328050D01*
X216295303Y-84404709D01*
X216278294Y-84481719D01*
X216262680Y-84625977D01*
X216260449Y-84739197D01*
X215962351Y-84739197D01*
X215962351Y-83509800D01*
X215590002Y-83509800D01*
X215590002Y-85580980D01*
X214814731Y-85580980D01*
X214864195Y-85562952D01*
X214936181Y-85528274D01*
X215003613Y-85487046D01*
X215066797Y-85439158D01*
X215124669Y-85385434D01*
X215177046Y-85326116D01*
X215223412Y-85261790D01*
X215296472Y-85120574D01*
X215341403Y-84966464D01*
X215356628Y-84803799D01*
X215356343Y-84781321D01*
X215350255Y-84697819D01*
X215336430Y-84616109D01*
X215315075Y-84536612D01*
X215286458Y-84460037D01*
X215209332Y-84319200D01*
X215108828Y-84198522D01*
X214988781Y-84101415D01*
X214852409Y-84030059D01*
X214702011Y-83986030D01*
X214622271Y-83974772D01*
X214539025Y-83970931D01*
X214389981Y-83983459D01*
X214310943Y-84001234D01*
X214236564Y-84026069D01*
X214164411Y-84058738D01*
X214097478Y-84097852D01*
X214033364Y-84144857D01*
X213975156Y-84197559D01*
X213921049Y-84257647D01*
X213873579Y-84322416D01*
X213831909Y-84392955D01*
X213797509Y-84466824D01*
X213770390Y-84543654D01*
X213750913Y-84622210D01*
X213746536Y-84666534D01*
X213735466Y-84778642D01*
X213325251Y-84778642D01*
X213629221Y-84025641D01*
X213203628Y-84025641D01*
X212850819Y-85022152D01*
X212475662Y-84025641D01*
X212052878Y-84025641D01*
X211830656Y-84025641D01*
X211830656Y-83248499D01*
X237241603Y-83248499D01*
X237241603Y-89514301D01*
G37*
D11*
G36*
X217992450Y-77117012D02*
G01*
X217116588Y-77117012D01*
X217116588Y-76241150D01*
X217992450Y-76241150D01*
X217992450Y-77117012D01*
G37*
G36*
X220620034Y-73613566D02*
G01*
X218868311Y-73613566D01*
X218868311Y-74489428D01*
X219744172Y-74489428D01*
X219744172Y-75365289D01*
X219744172Y-76241150D01*
X220620034Y-76241150D01*
X220620034Y-75365289D01*
X221495895Y-75365289D01*
X221495895Y-76241150D01*
X223247618Y-76241150D01*
X223247618Y-75365289D01*
X224123479Y-75365289D01*
X224123479Y-74489428D01*
X224123479Y-73613566D01*
X224999341Y-73613566D01*
X224999341Y-74489428D01*
X225875202Y-74489428D01*
X225875202Y-75365289D01*
X224999341Y-75365289D01*
X224999341Y-76241150D01*
X224999341Y-77117012D01*
X224999341Y-77992873D01*
X225875202Y-77992873D01*
X225875202Y-78868734D01*
X224123479Y-78868734D01*
X224123479Y-79744596D01*
X224123479Y-80620457D01*
X224123479Y-81496319D01*
X224123479Y-82372180D01*
X223247618Y-82372180D01*
X223247618Y-81496319D01*
X222371757Y-81496319D01*
X222371757Y-80620457D01*
X223247618Y-80620457D01*
X223247618Y-79744596D01*
X222371757Y-79744596D01*
X222371757Y-80620457D01*
X219744172Y-80620457D01*
X219744172Y-79744596D01*
X220620034Y-79744596D01*
X220620034Y-78868734D01*
X221495895Y-78868734D01*
X221495895Y-79744596D01*
X222371757Y-79744596D01*
X222371757Y-78868734D01*
X222371757Y-77992873D01*
X224123479Y-77992873D01*
X224123479Y-77117012D01*
X222371757Y-77117012D01*
X222371757Y-77992873D01*
X221495895Y-77992873D01*
X221495895Y-77117012D01*
X220620034Y-77117012D01*
X220620034Y-77992873D01*
X220620034Y-78868734D01*
X219744172Y-78868734D01*
X219744172Y-79744596D01*
X217992450Y-79744596D01*
X217992450Y-78868734D01*
X215364866Y-78868734D01*
X215364866Y-79744596D01*
X214489004Y-79744596D01*
X214489004Y-80620457D01*
X215364866Y-80620457D01*
X215364866Y-79744596D01*
X217116588Y-79744596D01*
X217116588Y-80620457D01*
X218868311Y-80620457D01*
X218868311Y-81496319D01*
X220620034Y-81496319D01*
X220620034Y-82372180D01*
X217992450Y-82372180D01*
X217992450Y-81496319D01*
X216240727Y-81496319D01*
X216240727Y-80620457D01*
X215364866Y-80620457D01*
X215364866Y-81496319D01*
X213613143Y-81496319D01*
X213613143Y-80620457D01*
X212737281Y-80620457D01*
X212737281Y-81496319D01*
X211861420Y-81496319D01*
X211861420Y-80620457D01*
X211861420Y-79744596D01*
X211861420Y-77992873D01*
X212737281Y-77992873D01*
X212737281Y-79744596D01*
X213613143Y-79744596D01*
X213613143Y-78868734D01*
X214489004Y-78868734D01*
X214489004Y-77992873D01*
X214489004Y-77117012D01*
X215364866Y-77117012D01*
X215364866Y-76241150D01*
X214489004Y-76241150D01*
X214489004Y-75365289D01*
X216240727Y-75365289D01*
X216240727Y-76241150D01*
X216240727Y-77117012D01*
X216240727Y-77992873D01*
X218868311Y-77992873D01*
X218868311Y-77117012D01*
X218868311Y-76241150D01*
X218868311Y-75365289D01*
X216240727Y-75365289D01*
X214489004Y-75365289D01*
X213613143Y-75365289D01*
X213613143Y-74489428D01*
X212737281Y-74489428D01*
X212737281Y-75365289D01*
X211861420Y-75365289D01*
X211861420Y-74489428D01*
X211861420Y-73613566D01*
X211861420Y-72737705D01*
X212737281Y-72737705D01*
X212737281Y-73613566D01*
X214489004Y-73613566D01*
X215364866Y-73613566D01*
X215364866Y-74489428D01*
X216240727Y-74489428D01*
X216240727Y-73613566D01*
X217116588Y-73613566D01*
X217116588Y-72737705D01*
X216240727Y-72737705D01*
X216240727Y-73613566D01*
X215364866Y-73613566D01*
X214489004Y-73613566D01*
X214489004Y-72737705D01*
X215364866Y-72737705D01*
X215364866Y-71861843D01*
X216240727Y-71861843D01*
X216240727Y-70985982D01*
X216240727Y-69234259D01*
X215364866Y-69234259D01*
X215364866Y-68358398D01*
X216240727Y-68358398D01*
X216240727Y-67482537D01*
X217116588Y-67482537D01*
X217992450Y-67482537D01*
X217992450Y-66606675D01*
X217116588Y-66606675D01*
X217116588Y-67482537D01*
X216240727Y-67482537D01*
X214489004Y-67482537D01*
X214489004Y-66606675D01*
X215364866Y-66606675D01*
X215364866Y-65730814D01*
X215364866Y-64854952D01*
X215364866Y-63979091D01*
X216240727Y-63979091D01*
X216240727Y-64854952D01*
X217116588Y-64854952D01*
X217116588Y-65730814D01*
X216240727Y-65730814D01*
X216240727Y-66606675D01*
X217116588Y-66606675D01*
X217116588Y-65730814D01*
X218868311Y-65730814D01*
X218868311Y-66606675D01*
X219744172Y-66606675D01*
X219744172Y-67482537D01*
X220620034Y-67482537D01*
X220620034Y-68358398D01*
X218868311Y-68358398D01*
X218868311Y-67482537D01*
X217992450Y-67482537D01*
X217992450Y-68358398D01*
X217992450Y-69234259D01*
X218868311Y-69234259D01*
X218868311Y-70985982D01*
X217116588Y-70985982D01*
X217116588Y-71861843D01*
X218868311Y-71861843D01*
X218868311Y-70985982D01*
X220620034Y-70985982D01*
X220620034Y-71861843D01*
X220620034Y-72737705D01*
X220620034Y-73613566D01*
G37*
G36*
X230254509Y-76241150D02*
G01*
X230254509Y-77117012D01*
X230254509Y-77992873D01*
X230254509Y-78868734D01*
X230254509Y-79744596D01*
X229378648Y-79744596D01*
X229378648Y-78868734D01*
X227626925Y-78868734D01*
X227626925Y-79744596D01*
X229378648Y-79744596D01*
X229378648Y-80620457D01*
X229378648Y-81496319D01*
X228502786Y-81496319D01*
X228502786Y-80620457D01*
X226751063Y-80620457D01*
X226751063Y-82372180D01*
X224999341Y-82372180D01*
X224999341Y-80620457D01*
X224999341Y-79744596D01*
X226751063Y-79744596D01*
X226751063Y-78868734D01*
X226751063Y-77992873D01*
X227626925Y-77992873D01*
X227626925Y-77117012D01*
X228502786Y-77117012D01*
X228502786Y-77992873D01*
X229378648Y-77992873D01*
X229378648Y-77117012D01*
X228502786Y-77117012D01*
X228502786Y-76241150D01*
X229378648Y-76241150D01*
X229378648Y-75365289D01*
X230254509Y-75365289D01*
X230254509Y-76241150D01*
G37*
G36*
X230254509Y-82372180D02*
G01*
X229378648Y-82372180D01*
X229378648Y-81496319D01*
X230254509Y-81496319D01*
X230254509Y-82372180D01*
G37*
G36*
X235509677Y-80620457D02*
G01*
X232882093Y-80620457D01*
X232882093Y-77992873D01*
X235509677Y-77992873D01*
X235509677Y-80620457D01*
G37*
G36*
X237261400Y-81496319D02*
G01*
X237261400Y-82372180D01*
X231130370Y-82372180D01*
X231130370Y-81496319D01*
X231130370Y-77117012D01*
X232006232Y-77117012D01*
X232006232Y-81496319D01*
X236385539Y-81496319D01*
X236385539Y-77117012D01*
X232006232Y-77117012D01*
X231130370Y-77117012D01*
X231130370Y-76241150D01*
X237261400Y-76241150D01*
X237261400Y-77117012D01*
X237261400Y-81496319D01*
G37*
G36*
X226751063Y-77992873D02*
G01*
X225875202Y-77992873D01*
X225875202Y-77117012D01*
X226751063Y-77117012D01*
X226751063Y-77992873D01*
G37*
G36*
X227626925Y-77117012D02*
G01*
X226751063Y-77117012D01*
X226751063Y-76241150D01*
X227626925Y-76241150D01*
X227626925Y-77117012D01*
G37*
G36*
X228502786Y-76241150D02*
G01*
X227626925Y-76241150D01*
X227626925Y-75365289D01*
X228502786Y-75365289D01*
X228502786Y-76241150D01*
G37*
G36*
X224999341Y-71861843D02*
G01*
X225875202Y-71861843D01*
X225875202Y-72737705D01*
X224123479Y-72737705D01*
X224123479Y-73613566D01*
X223247618Y-73613566D01*
X223247618Y-75365289D01*
X222371757Y-75365289D01*
X222371757Y-73613566D01*
X222371757Y-72737705D01*
X223247618Y-72737705D01*
X223247618Y-71861843D01*
X223247618Y-70985982D01*
X224999341Y-70985982D01*
X224999341Y-71861843D01*
G37*
G36*
X229378648Y-75365289D02*
G01*
X228502786Y-75365289D01*
X228502786Y-74489428D01*
X229378648Y-74489428D01*
X229378648Y-75365289D01*
G37*
G36*
X229378648Y-71861843D02*
G01*
X230254509Y-71861843D01*
X230254509Y-70985982D01*
X232882093Y-70985982D01*
X232882093Y-71861843D01*
X233757954Y-71861843D01*
X233757954Y-72737705D01*
X232882093Y-72737705D01*
X232882093Y-73613566D01*
X232882093Y-74489428D01*
X233757954Y-74489428D01*
X233757954Y-75365289D01*
X231130370Y-75365289D01*
X231130370Y-74489428D01*
X232006232Y-74489428D01*
X232006232Y-73613566D01*
X231130370Y-73613566D01*
X231130370Y-72737705D01*
X232006232Y-72737705D01*
X232006232Y-71861843D01*
X231130370Y-71861843D01*
X231130370Y-72737705D01*
X229378648Y-72737705D01*
X229378648Y-73613566D01*
X228502786Y-73613566D01*
X228502786Y-72737705D01*
X228502786Y-71861843D01*
X228502786Y-70985982D01*
X229378648Y-70985982D01*
X229378648Y-71861843D01*
G37*
G36*
X237261400Y-72737705D02*
G01*
X237261400Y-75365289D01*
X235509677Y-75365289D01*
X235509677Y-72737705D01*
X236385539Y-72737705D01*
X236385539Y-71861843D01*
X237261400Y-71861843D01*
X237261400Y-72737705D01*
G37*
G36*
X228502786Y-74489428D02*
G01*
X227626925Y-74489428D01*
X227626925Y-73613566D01*
X228502786Y-73613566D01*
X228502786Y-74489428D01*
G37*
G36*
X231130370Y-74489428D02*
G01*
X229378648Y-74489428D01*
X229378648Y-73613566D01*
X231130370Y-73613566D01*
X231130370Y-74489428D01*
G37*
G36*
X234633816Y-74489428D02*
G01*
X233757954Y-74489428D01*
X233757954Y-72737705D01*
X234633816Y-72737705D01*
X234633816Y-74489428D01*
G37*
G36*
X227626925Y-73613566D02*
G01*
X225875202Y-73613566D01*
X225875202Y-72737705D01*
X227626925Y-72737705D01*
X227626925Y-73613566D01*
G37*
G36*
X235509677Y-72737705D02*
G01*
X234633816Y-72737705D01*
X234633816Y-71861843D01*
X235509677Y-71861843D01*
X235509677Y-72737705D01*
G37*
G36*
X212737281Y-68358398D02*
G01*
X214489004Y-68358398D01*
X214489004Y-69234259D01*
X212737281Y-69234259D01*
X212737281Y-70110121D01*
X215364866Y-70110121D01*
X215364866Y-70985982D01*
X213613143Y-70985982D01*
X213613143Y-71861843D01*
X211861420Y-71861843D01*
X211861420Y-70985982D01*
X211861420Y-70110121D01*
X211861420Y-69234259D01*
X211861420Y-68358398D01*
X211861420Y-66606675D01*
X212737281Y-66606675D01*
X212737281Y-68358398D01*
G37*
G36*
X222371757Y-71861843D02*
G01*
X221495895Y-71861843D01*
X221495895Y-70985982D01*
X222371757Y-70985982D01*
X222371757Y-71861843D01*
G37*
G36*
X224999341Y-63103230D02*
G01*
X225875202Y-63103230D01*
X225875202Y-62227368D01*
X226751063Y-62227368D01*
X226751063Y-63103230D01*
X227626925Y-63103230D01*
X227626925Y-63979091D01*
X228502786Y-63979091D01*
X228502786Y-64854952D01*
X227626925Y-64854952D01*
X227626925Y-65730814D01*
X227626925Y-66606675D01*
X226751063Y-66606675D01*
X226751063Y-65730814D01*
X225875202Y-65730814D01*
X225875202Y-66606675D01*
X226751063Y-66606675D01*
X226751063Y-67482537D01*
X227626925Y-67482537D01*
X227626925Y-66606675D01*
X230254509Y-66606675D01*
X230254509Y-65730814D01*
X229378648Y-65730814D01*
X229378648Y-64854952D01*
X229378648Y-63979091D01*
X234633816Y-63979091D01*
X234633816Y-64854952D01*
X231130370Y-64854952D01*
X231130370Y-65730814D01*
X232006232Y-65730814D01*
X232006232Y-66606675D01*
X231130370Y-66606675D01*
X231130370Y-67482537D01*
X232006232Y-67482537D01*
X232006232Y-68358398D01*
X230254509Y-68358398D01*
X230254509Y-67482537D01*
X229378648Y-67482537D01*
X229378648Y-68358398D01*
X228502786Y-68358398D01*
X228502786Y-67482537D01*
X227626925Y-67482537D01*
X227626925Y-68358398D01*
X227626925Y-69234259D01*
X226751063Y-69234259D01*
X226751063Y-68358398D01*
X225875202Y-68358398D01*
X225875202Y-69234259D01*
X226751063Y-69234259D01*
X226751063Y-70110121D01*
X227626925Y-70110121D01*
X227626925Y-70985982D01*
X227626925Y-71861843D01*
X226751063Y-71861843D01*
X226751063Y-70985982D01*
X225875202Y-70985982D01*
X225875202Y-70110121D01*
X224999341Y-70110121D01*
X224999341Y-69234259D01*
X224123479Y-69234259D01*
X224123479Y-70110121D01*
X223247618Y-70110121D01*
X223247618Y-69234259D01*
X220620034Y-69234259D01*
X220620034Y-68358398D01*
X221495895Y-68358398D01*
X221495895Y-67482537D01*
X222371757Y-67482537D01*
X222371757Y-68358398D01*
X223247618Y-68358398D01*
X224123479Y-68358398D01*
X224999341Y-68358398D01*
X224999341Y-67482537D01*
X224999341Y-66606675D01*
X224999341Y-65730814D01*
X224123479Y-65730814D01*
X224123479Y-66606675D01*
X224123479Y-67482537D01*
X224123479Y-68358398D01*
X223247618Y-68358398D01*
X223247618Y-67482537D01*
X222371757Y-67482537D01*
X221495895Y-67482537D01*
X221495895Y-66606675D01*
X221495895Y-65730814D01*
X219744172Y-65730814D01*
X219744172Y-64854952D01*
X222371757Y-64854952D01*
X222371757Y-65730814D01*
X222371757Y-66606675D01*
X223247618Y-66606675D01*
X223247618Y-65730814D01*
X223247618Y-64854952D01*
X222371757Y-64854952D01*
X222371757Y-63979091D01*
X224123479Y-63979091D01*
X224123479Y-64854952D01*
X224999341Y-64854952D01*
X224999341Y-63979091D01*
X224123479Y-63979091D01*
X224123479Y-63103230D01*
X224123479Y-62227368D01*
X224999341Y-62227368D01*
X224999341Y-63103230D01*
G37*
G36*
X221495895Y-70985982D02*
G01*
X220620034Y-70985982D01*
X220620034Y-70110121D01*
X221495895Y-70110121D01*
X221495895Y-70985982D01*
G37*
G36*
X233757954Y-68358398D02*
G01*
X233757954Y-69234259D01*
X234633816Y-69234259D01*
X234633816Y-68358398D01*
X234633816Y-67482537D01*
X235509677Y-67482537D01*
X235509677Y-68358398D01*
X236385539Y-68358398D01*
X236385539Y-69234259D01*
X236385539Y-70110121D01*
X236385539Y-70985982D01*
X233757954Y-70985982D01*
X233757954Y-70110121D01*
X231130370Y-70110121D01*
X231130370Y-69234259D01*
X232006232Y-69234259D01*
X232006232Y-68358398D01*
X232882093Y-68358398D01*
X232882093Y-66606675D01*
X233757954Y-66606675D01*
X233757954Y-68358398D01*
G37*
G36*
X220620034Y-70110121D02*
G01*
X219744172Y-70110121D01*
X219744172Y-69234259D01*
X220620034Y-69234259D01*
X220620034Y-70110121D01*
G37*
G36*
X229378648Y-70110121D02*
G01*
X228502786Y-70110121D01*
X228502786Y-69234259D01*
X229378648Y-69234259D01*
X229378648Y-70110121D01*
G37*
G36*
X230254509Y-69234259D02*
G01*
X229378648Y-69234259D01*
X229378648Y-68358398D01*
X230254509Y-68358398D01*
X230254509Y-69234259D01*
G37*
G36*
X214489004Y-66606675D02*
G01*
X213613143Y-66606675D01*
X213613143Y-65730814D01*
X214489004Y-65730814D01*
X214489004Y-66606675D01*
G37*
G36*
X234633816Y-66606675D02*
G01*
X233757954Y-66606675D01*
X233757954Y-65730814D01*
X234633816Y-65730814D01*
X234633816Y-66606675D01*
G37*
G36*
X236385539Y-65730814D02*
G01*
X235509677Y-65730814D01*
X235509677Y-64854952D01*
X236385539Y-64854952D01*
X236385539Y-65730814D01*
G37*
G36*
X214489004Y-64854952D02*
G01*
X211861420Y-64854952D01*
X211861420Y-63979091D01*
X214489004Y-63979091D01*
X214489004Y-64854952D01*
G37*
G36*
X219744172Y-59599784D02*
G01*
X220620034Y-59599784D01*
X220620034Y-61351507D01*
X219744172Y-61351507D01*
X219744172Y-63103230D01*
X220620034Y-63103230D01*
X220620034Y-62227368D01*
X221495895Y-62227368D01*
X221495895Y-63103230D01*
X221495895Y-63979091D01*
X219744172Y-63979091D01*
X219744172Y-64854952D01*
X217992450Y-64854952D01*
X217992450Y-63979091D01*
X218868311Y-63979091D01*
X218868311Y-63103230D01*
X218868311Y-61351507D01*
X218868311Y-59599784D01*
X218868311Y-58723923D01*
X219744172Y-58723923D01*
X219744172Y-59599784D01*
G37*
G36*
X237261400Y-64854952D02*
G01*
X236385539Y-64854952D01*
X236385539Y-63979091D01*
X237261400Y-63979091D01*
X237261400Y-64854952D01*
G37*
G36*
X216240727Y-61351507D02*
G01*
X213613143Y-61351507D01*
X213613143Y-58723923D01*
X216240727Y-58723923D01*
X216240727Y-61351507D01*
G37*
G36*
X217992450Y-62227368D02*
G01*
X217992450Y-63103230D01*
X211861420Y-63103230D01*
X211861420Y-62227368D01*
X211861420Y-57848061D01*
X212737281Y-57848061D01*
X212737281Y-62227368D01*
X217116588Y-62227368D01*
X217116588Y-57848061D01*
X212737281Y-57848061D01*
X211861420Y-57848061D01*
X211861420Y-56972200D01*
X217992450Y-56972200D01*
X217992450Y-57848061D01*
X217992450Y-62227368D01*
G37*
G36*
X223247618Y-63103230D02*
G01*
X222371757Y-63103230D01*
X222371757Y-62227368D01*
X223247618Y-62227368D01*
X223247618Y-63103230D01*
G37*
G36*
X228502786Y-63103230D02*
G01*
X227626925Y-63103230D01*
X227626925Y-62227368D01*
X228502786Y-62227368D01*
X228502786Y-63103230D01*
G37*
G36*
X230254509Y-63103230D02*
G01*
X229378648Y-63103230D01*
X229378648Y-62227368D01*
X230254509Y-62227368D01*
X230254509Y-63103230D01*
G37*
G36*
X235509677Y-61351507D02*
G01*
X232882093Y-61351507D01*
X232882093Y-58723923D01*
X235509677Y-58723923D01*
X235509677Y-61351507D01*
G37*
G36*
X237261400Y-62227368D02*
G01*
X237261400Y-63103230D01*
X231130370Y-63103230D01*
X231130370Y-62227368D01*
X231130370Y-57848061D01*
X232006232Y-57848061D01*
X232006232Y-62227368D01*
X236385539Y-62227368D01*
X236385539Y-57848061D01*
X232006232Y-57848061D01*
X231130370Y-57848061D01*
X231130370Y-56972200D01*
X237261400Y-56972200D01*
X237261400Y-57848061D01*
X237261400Y-62227368D01*
G37*
G36*
X223247618Y-61351507D02*
G01*
X222371757Y-61351507D01*
X222371757Y-62227368D01*
X221495895Y-62227368D01*
X221495895Y-61351507D01*
X221495895Y-60475646D01*
X223247618Y-60475646D01*
X223247618Y-61351507D01*
G37*
G36*
X225875202Y-62227368D02*
G01*
X224999341Y-62227368D01*
X224999341Y-61351507D01*
X225875202Y-61351507D01*
X225875202Y-62227368D01*
G37*
G36*
X230254509Y-61351507D02*
G01*
X229378648Y-61351507D01*
X229378648Y-62227368D01*
X228502786Y-62227368D01*
X228502786Y-61351507D01*
X228502786Y-60475646D01*
X230254509Y-60475646D01*
X230254509Y-61351507D01*
G37*
G36*
X227626925Y-59599784D02*
G01*
X228502786Y-59599784D01*
X228502786Y-60475646D01*
X227626925Y-60475646D01*
X227626925Y-61351507D01*
X226751063Y-61351507D01*
X226751063Y-60475646D01*
X226751063Y-59599784D01*
X226751063Y-56972200D01*
X227626925Y-56972200D01*
X227626925Y-59599784D01*
G37*
G36*
X225875202Y-59599784D02*
G01*
X225875202Y-60475646D01*
X224999341Y-60475646D01*
X224999341Y-59599784D01*
X223247618Y-59599784D01*
X223247618Y-58723923D01*
X225875202Y-58723923D01*
X225875202Y-59599784D01*
G37*
G36*
X221495895Y-58723923D02*
G01*
X221495895Y-59599784D01*
X220620034Y-59599784D01*
X220620034Y-58723923D01*
X219744172Y-58723923D01*
X219744172Y-56972200D01*
X221495895Y-56972200D01*
X221495895Y-58723923D01*
G37*
G36*
X230254509Y-57848061D02*
G01*
X230254509Y-58723923D01*
X230254509Y-59599784D01*
X229378648Y-59599784D01*
X229378648Y-58723923D01*
X228502786Y-58723923D01*
X228502786Y-57848061D01*
X229378648Y-57848061D01*
X229378648Y-56972200D01*
X230254509Y-56972200D01*
X230254509Y-57848061D01*
G37*
G36*
X224999341Y-57848061D02*
G01*
X224123479Y-57848061D01*
X224123479Y-56972200D01*
X224999341Y-56972200D01*
X224999341Y-57848061D01*
G37*
M02*
