%TF.GenerationSoftware,KiCad,Pcbnew,10.0.0*%
%TF.CreationDate,2026-04-29T10:29:27-07:00*%
%TF.ProjectId,html_accelerator,68746d6c-5f61-4636-9365-6c657261746f,1*%
%TF.SameCoordinates,Original*%
%TF.FileFunction,Paste,Top*%
%TF.FilePolarity,Positive*%
%FSLAX46Y46*%
G04 Gerber Fmt 4.6, Leading zero omitted, Abs format (unit mm)*
G04 Created by KiCad (PCBNEW 10.0.0) date 2026-04-29 10:29:27*
%MOMM*%
%LPD*%
G01*
G04 APERTURE LIST*
G04 Aperture macros list*
%AMRoundRect*
0 Rectangle with rounded corners*
0 $1 Rounding radius*
0 $2 $3 $4 $5 $6 $7 $8 $9 X,Y pos of 4 corners*
0 Add a 4 corners polygon primitive as box body*
4,1,4,$2,$3,$4,$5,$6,$7,$8,$9,$2,$3,0*
0 Add four circle primitives for the rounded corners*
1,1,$1+$1,$2,$3*
1,1,$1+$1,$4,$5*
1,1,$1+$1,$6,$7*
1,1,$1+$1,$8,$9*
0 Add four rect primitives between the rounded corners*
20,1,$1+$1,$2,$3,$4,$5,0*
20,1,$1+$1,$4,$5,$6,$7,0*
20,1,$1+$1,$6,$7,$8,$9,0*
20,1,$1+$1,$8,$9,$2,$3,0*%
G04 Aperture macros list end*
%ADD10C,0.254000*%
%ADD11RoundRect,0.250000X-0.337500X-0.475000X0.337500X-0.475000X0.337500X0.475000X-0.337500X0.475000X0*%
%ADD12RoundRect,0.250000X-0.350000X-0.450000X0.350000X-0.450000X0.350000X0.450000X-0.350000X0.450000X0*%
%ADD13RoundRect,0.250000X0.337500X0.475000X-0.337500X0.475000X-0.337500X-0.475000X0.337500X-0.475000X0*%
%ADD14RoundRect,0.250000X0.475000X-0.337500X0.475000X0.337500X-0.475000X0.337500X-0.475000X-0.337500X0*%
%ADD15RoundRect,0.250000X0.325000X0.450000X-0.325000X0.450000X-0.325000X-0.450000X0.325000X-0.450000X0*%
%ADD16RoundRect,0.250000X-0.550000X1.500000X-0.550000X-1.500000X0.550000X-1.500000X0.550000X1.500000X0*%
%ADD17RoundRect,0.250000X0.350000X0.450000X-0.350000X0.450000X-0.350000X-0.450000X0.350000X-0.450000X0*%
%ADD18R,1.200000X0.400000*%
%ADD19R,0.900000X0.900000*%
%ADD20RoundRect,0.250000X0.350000X-0.450000X0.350000X0.450000X-0.350000X0.450000X-0.350000X-0.450000X0*%
%ADD21RoundRect,0.250000X-0.450000X0.350000X-0.450000X-0.350000X0.450000X-0.350000X0.450000X0.350000X0*%
%ADD22RoundRect,0.250000X0.450000X-0.350000X0.450000X0.350000X-0.450000X0.350000X-0.450000X-0.350000X0*%
%ADD23RoundRect,0.250000X-0.475000X0.337500X-0.475000X-0.337500X0.475000X-0.337500X0.475000X0.337500X0*%
%ADD24RoundRect,0.250000X2.000000X0.750000X-2.000000X0.750000X-2.000000X-0.750000X2.000000X-0.750000X0*%
%ADD25R,1.549400X1.346200*%
%ADD26R,1.549400X2.717800*%
%ADD27R,1.550000X0.600000*%
%ADD28O,1.550000X0.600000*%
%ADD29RoundRect,0.100000X-0.637500X-0.100000X0.637500X-0.100000X0.637500X0.100000X-0.637500X0.100000X0*%
%ADD30RoundRect,0.062500X0.062500X-0.675000X0.062500X0.675000X-0.062500X0.675000X-0.062500X-0.675000X0*%
%ADD31RoundRect,0.062500X0.675000X-0.062500X0.675000X0.062500X-0.675000X0.062500X-0.675000X-0.062500X0*%
%ADD32RoundRect,0.250000X0.550000X-1.500000X0.550000X1.500000X-0.550000X1.500000X-0.550000X-1.500000X0*%
%ADD33R,3.987800X7.010400*%
G04 APERTURE END LIST*
D10*
%TO.C,U7*%
X131925000Y-133201200D03*
X131925000Y-133701200D03*
X131925000Y-134201200D03*
X131925000Y-134701200D03*
X131925000Y-135201200D03*
X131925000Y-135701200D03*
X131925000Y-136201200D03*
X131925000Y-136701200D03*
X131925000Y-137201200D03*
X131925000Y-137701200D03*
X131925000Y-138201200D03*
X131925000Y-138701200D03*
X131925000Y-139201200D03*
X131925000Y-139701200D03*
X131425000Y-133201200D03*
X131425000Y-133701200D03*
X131425000Y-134201200D03*
X131425000Y-134701200D03*
X131425000Y-135201200D03*
X131425000Y-135701200D03*
X131425000Y-136201200D03*
X131425000Y-136701200D03*
X131425000Y-137201200D03*
X131425000Y-137701200D03*
X131425000Y-138201200D03*
X131425000Y-138701200D03*
X131425000Y-139201200D03*
X131425000Y-139701200D03*
X130925000Y-133201200D03*
X130925000Y-133701200D03*
X130925000Y-134201200D03*
X130925000Y-134701200D03*
X130925000Y-135201200D03*
X130925000Y-135701200D03*
X130925000Y-136201200D03*
X130925000Y-136701200D03*
X130925000Y-137201200D03*
X130925000Y-137701200D03*
X130925000Y-138201200D03*
X130925000Y-138701200D03*
X130925000Y-139201200D03*
X130925000Y-139701200D03*
X130425000Y-133201200D03*
X130425000Y-133701200D03*
X130425000Y-134201200D03*
X130425000Y-134701200D03*
X130425000Y-138701200D03*
X130425000Y-139201200D03*
X130425000Y-139701200D03*
X129925000Y-133201200D03*
X129925000Y-133701200D03*
X129925000Y-134201200D03*
X129925000Y-135201200D03*
X129925000Y-135701200D03*
X129925000Y-136201200D03*
X129925000Y-136701200D03*
X129925000Y-137201200D03*
X129925000Y-137701200D03*
X129925000Y-138701200D03*
X129925000Y-139201200D03*
X129925000Y-139701200D03*
X129425000Y-133201200D03*
X129425000Y-133701200D03*
X129425000Y-134201200D03*
X129425000Y-135201200D03*
X129425000Y-137701200D03*
X129425000Y-138701200D03*
X129425000Y-139201200D03*
X129425000Y-139701200D03*
X128925000Y-133201200D03*
X128925000Y-133701200D03*
X128925000Y-134201200D03*
X128925000Y-135201200D03*
X128925000Y-137701200D03*
X128925000Y-138701200D03*
X128925000Y-139201200D03*
X128925000Y-139701200D03*
X128425000Y-133201200D03*
X128425000Y-133701200D03*
X128425000Y-134201200D03*
X128425000Y-135201200D03*
X128425000Y-137701200D03*
X128425000Y-138701200D03*
X128425000Y-139201200D03*
X128425000Y-139701200D03*
X127925000Y-133201200D03*
X127925000Y-133701200D03*
X127925000Y-134201200D03*
X127925000Y-135201200D03*
X127925000Y-137701200D03*
X127925000Y-138701200D03*
X127925000Y-139201200D03*
X127925000Y-139701200D03*
X127425000Y-133201200D03*
X127425000Y-133701200D03*
X127425000Y-134201200D03*
X127425000Y-135201200D03*
X127425000Y-135701200D03*
X127425000Y-136201200D03*
X127425000Y-136701200D03*
X127425000Y-137201200D03*
X127425000Y-137701200D03*
X127425000Y-138701200D03*
X127425000Y-139201200D03*
X127425000Y-139701200D03*
X126925000Y-133201200D03*
X126925000Y-133701200D03*
X126925000Y-134201200D03*
X126925000Y-138701200D03*
X126925000Y-139201200D03*
X126925000Y-139701200D03*
X126425000Y-133201200D03*
X126425000Y-133701200D03*
X126425000Y-134201200D03*
X126425000Y-134701200D03*
X126425000Y-135201200D03*
X126425000Y-135701200D03*
X126425000Y-136201200D03*
X126425000Y-136701200D03*
X126425000Y-137201200D03*
X126425000Y-137701200D03*
X126425000Y-138201200D03*
X126425000Y-138701200D03*
X126425000Y-139201200D03*
X126425000Y-139701200D03*
X125925000Y-133201200D03*
X125925000Y-133701200D03*
X125925000Y-134201200D03*
X125925000Y-134701200D03*
X125925000Y-135201200D03*
X125925000Y-135701200D03*
X125925000Y-136201200D03*
X125925000Y-136701200D03*
X125925000Y-137201200D03*
X125925000Y-137701200D03*
X125925000Y-138201200D03*
X125925000Y-138701200D03*
X125925000Y-139201200D03*
X125925000Y-139701200D03*
X125425000Y-133201200D03*
X125425000Y-133701200D03*
X125425000Y-134201200D03*
X125425000Y-134701200D03*
X125425000Y-135201200D03*
X125425000Y-135701200D03*
X125425000Y-136201200D03*
X125425000Y-136701200D03*
X125425000Y-137201200D03*
X125425000Y-137701200D03*
X125425000Y-138201200D03*
X125425000Y-138701200D03*
X125425000Y-139201200D03*
X125425000Y-139701200D03*
%TD*%
%TO.C,U6*%
X131925000Y-114114132D03*
X131925000Y-114614132D03*
X131925000Y-115114132D03*
X131925000Y-115614132D03*
X131925000Y-116114132D03*
X131925000Y-116614132D03*
X131925000Y-117114132D03*
X131925000Y-117614132D03*
X131925000Y-118114132D03*
X131925000Y-118614132D03*
X131925000Y-119114132D03*
X131925000Y-119614132D03*
X131925000Y-120114132D03*
X131925000Y-120614132D03*
X131425000Y-114114132D03*
X131425000Y-114614132D03*
X131425000Y-115114132D03*
X131425000Y-115614132D03*
X131425000Y-116114132D03*
X131425000Y-116614132D03*
X131425000Y-117114132D03*
X131425000Y-117614132D03*
X131425000Y-118114132D03*
X131425000Y-118614132D03*
X131425000Y-119114132D03*
X131425000Y-119614132D03*
X131425000Y-120114132D03*
X131425000Y-120614132D03*
X130925000Y-114114132D03*
X130925000Y-114614132D03*
X130925000Y-115114132D03*
X130925000Y-115614132D03*
X130925000Y-116114132D03*
X130925000Y-116614132D03*
X130925000Y-117114132D03*
X130925000Y-117614132D03*
X130925000Y-118114132D03*
X130925000Y-118614132D03*
X130925000Y-119114132D03*
X130925000Y-119614132D03*
X130925000Y-120114132D03*
X130925000Y-120614132D03*
X130425000Y-114114132D03*
X130425000Y-114614132D03*
X130425000Y-115114132D03*
X130425000Y-115614132D03*
X130425000Y-119614132D03*
X130425000Y-120114132D03*
X130425000Y-120614132D03*
X129925000Y-114114132D03*
X129925000Y-114614132D03*
X129925000Y-115114132D03*
X129925000Y-116114132D03*
X129925000Y-116614132D03*
X129925000Y-117114132D03*
X129925000Y-117614132D03*
X129925000Y-118114132D03*
X129925000Y-118614132D03*
X129925000Y-119614132D03*
X129925000Y-120114132D03*
X129925000Y-120614132D03*
X129425000Y-114114132D03*
X129425000Y-114614132D03*
X129425000Y-115114132D03*
X129425000Y-116114132D03*
X129425000Y-118614132D03*
X129425000Y-119614132D03*
X129425000Y-120114132D03*
X129425000Y-120614132D03*
X128925000Y-114114132D03*
X128925000Y-114614132D03*
X128925000Y-115114132D03*
X128925000Y-116114132D03*
X128925000Y-118614132D03*
X128925000Y-119614132D03*
X128925000Y-120114132D03*
X128925000Y-120614132D03*
X128425000Y-114114132D03*
X128425000Y-114614132D03*
X128425000Y-115114132D03*
X128425000Y-116114132D03*
X128425000Y-118614132D03*
X128425000Y-119614132D03*
X128425000Y-120114132D03*
X128425000Y-120614132D03*
X127925000Y-114114132D03*
X127925000Y-114614132D03*
X127925000Y-115114132D03*
X127925000Y-116114132D03*
X127925000Y-118614132D03*
X127925000Y-119614132D03*
X127925000Y-120114132D03*
X127925000Y-120614132D03*
X127425000Y-114114132D03*
X127425000Y-114614132D03*
X127425000Y-115114132D03*
X127425000Y-116114132D03*
X127425000Y-116614132D03*
X127425000Y-117114132D03*
X127425000Y-117614132D03*
X127425000Y-118114132D03*
X127425000Y-118614132D03*
X127425000Y-119614132D03*
X127425000Y-120114132D03*
X127425000Y-120614132D03*
X126925000Y-114114132D03*
X126925000Y-114614132D03*
X126925000Y-115114132D03*
X126925000Y-119614132D03*
X126925000Y-120114132D03*
X126925000Y-120614132D03*
X126425000Y-114114132D03*
X126425000Y-114614132D03*
X126425000Y-115114132D03*
X126425000Y-115614132D03*
X126425000Y-116114132D03*
X126425000Y-116614132D03*
X126425000Y-117114132D03*
X126425000Y-117614132D03*
X126425000Y-118114132D03*
X126425000Y-118614132D03*
X126425000Y-119114132D03*
X126425000Y-119614132D03*
X126425000Y-120114132D03*
X126425000Y-120614132D03*
X125925000Y-114114132D03*
X125925000Y-114614132D03*
X125925000Y-115114132D03*
X125925000Y-115614132D03*
X125925000Y-116114132D03*
X125925000Y-116614132D03*
X125925000Y-117114132D03*
X125925000Y-117614132D03*
X125925000Y-118114132D03*
X125925000Y-118614132D03*
X125925000Y-119114132D03*
X125925000Y-119614132D03*
X125925000Y-120114132D03*
X125925000Y-120614132D03*
X125425000Y-114114132D03*
X125425000Y-114614132D03*
X125425000Y-115114132D03*
X125425000Y-115614132D03*
X125425000Y-116114132D03*
X125425000Y-116614132D03*
X125425000Y-117114132D03*
X125425000Y-117614132D03*
X125425000Y-118114132D03*
X125425000Y-118614132D03*
X125425000Y-119114132D03*
X125425000Y-119614132D03*
X125425000Y-120114132D03*
X125425000Y-120614132D03*
%TD*%
%TO.C,U5*%
X131925000Y-95027066D03*
X131925000Y-95527066D03*
X131925000Y-96027066D03*
X131925000Y-96527066D03*
X131925000Y-97027066D03*
X131925000Y-97527066D03*
X131925000Y-98027066D03*
X131925000Y-98527066D03*
X131925000Y-99027066D03*
X131925000Y-99527066D03*
X131925000Y-100027066D03*
X131925000Y-100527066D03*
X131925000Y-101027066D03*
X131925000Y-101527066D03*
X131425000Y-95027066D03*
X131425000Y-95527066D03*
X131425000Y-96027066D03*
X131425000Y-96527066D03*
X131425000Y-97027066D03*
X131425000Y-97527066D03*
X131425000Y-98027066D03*
X131425000Y-98527066D03*
X131425000Y-99027066D03*
X131425000Y-99527066D03*
X131425000Y-100027066D03*
X131425000Y-100527066D03*
X131425000Y-101027066D03*
X131425000Y-101527066D03*
X130925000Y-95027066D03*
X130925000Y-95527066D03*
X130925000Y-96027066D03*
X130925000Y-96527066D03*
X130925000Y-97027066D03*
X130925000Y-97527066D03*
X130925000Y-98027066D03*
X130925000Y-98527066D03*
X130925000Y-99027066D03*
X130925000Y-99527066D03*
X130925000Y-100027066D03*
X130925000Y-100527066D03*
X130925000Y-101027066D03*
X130925000Y-101527066D03*
X130425000Y-95027066D03*
X130425000Y-95527066D03*
X130425000Y-96027066D03*
X130425000Y-96527066D03*
X130425000Y-100527066D03*
X130425000Y-101027066D03*
X130425000Y-101527066D03*
X129925000Y-95027066D03*
X129925000Y-95527066D03*
X129925000Y-96027066D03*
X129925000Y-97027066D03*
X129925000Y-97527066D03*
X129925000Y-98027066D03*
X129925000Y-98527066D03*
X129925000Y-99027066D03*
X129925000Y-99527066D03*
X129925000Y-100527066D03*
X129925000Y-101027066D03*
X129925000Y-101527066D03*
X129425000Y-95027066D03*
X129425000Y-95527066D03*
X129425000Y-96027066D03*
X129425000Y-97027066D03*
X129425000Y-99527066D03*
X129425000Y-100527066D03*
X129425000Y-101027066D03*
X129425000Y-101527066D03*
X128925000Y-95027066D03*
X128925000Y-95527066D03*
X128925000Y-96027066D03*
X128925000Y-97027066D03*
X128925000Y-99527066D03*
X128925000Y-100527066D03*
X128925000Y-101027066D03*
X128925000Y-101527066D03*
X128425000Y-95027066D03*
X128425000Y-95527066D03*
X128425000Y-96027066D03*
X128425000Y-97027066D03*
X128425000Y-99527066D03*
X128425000Y-100527066D03*
X128425000Y-101027066D03*
X128425000Y-101527066D03*
X127925000Y-95027066D03*
X127925000Y-95527066D03*
X127925000Y-96027066D03*
X127925000Y-97027066D03*
X127925000Y-99527066D03*
X127925000Y-100527066D03*
X127925000Y-101027066D03*
X127925000Y-101527066D03*
X127425000Y-95027066D03*
X127425000Y-95527066D03*
X127425000Y-96027066D03*
X127425000Y-97027066D03*
X127425000Y-97527066D03*
X127425000Y-98027066D03*
X127425000Y-98527066D03*
X127425000Y-99027066D03*
X127425000Y-99527066D03*
X127425000Y-100527066D03*
X127425000Y-101027066D03*
X127425000Y-101527066D03*
X126925000Y-95027066D03*
X126925000Y-95527066D03*
X126925000Y-96027066D03*
X126925000Y-100527066D03*
X126925000Y-101027066D03*
X126925000Y-101527066D03*
X126425000Y-95027066D03*
X126425000Y-95527066D03*
X126425000Y-96027066D03*
X126425000Y-96527066D03*
X126425000Y-97027066D03*
X126425000Y-97527066D03*
X126425000Y-98027066D03*
X126425000Y-98527066D03*
X126425000Y-99027066D03*
X126425000Y-99527066D03*
X126425000Y-100027066D03*
X126425000Y-100527066D03*
X126425000Y-101027066D03*
X126425000Y-101527066D03*
X125925000Y-95027066D03*
X125925000Y-95527066D03*
X125925000Y-96027066D03*
X125925000Y-96527066D03*
X125925000Y-97027066D03*
X125925000Y-97527066D03*
X125925000Y-98027066D03*
X125925000Y-98527066D03*
X125925000Y-99027066D03*
X125925000Y-99527066D03*
X125925000Y-100027066D03*
X125925000Y-100527066D03*
X125925000Y-101027066D03*
X125925000Y-101527066D03*
X125425000Y-95027066D03*
X125425000Y-95527066D03*
X125425000Y-96027066D03*
X125425000Y-96527066D03*
X125425000Y-97027066D03*
X125425000Y-97527066D03*
X125425000Y-98027066D03*
X125425000Y-98527066D03*
X125425000Y-99027066D03*
X125425000Y-99527066D03*
X125425000Y-100027066D03*
X125425000Y-100527066D03*
X125425000Y-101027066D03*
X125425000Y-101527066D03*
%TD*%
%TO.C,U11*%
X131925000Y-75940000D03*
X131925000Y-76440000D03*
X131925000Y-76940000D03*
X131925000Y-77440000D03*
X131925000Y-77940000D03*
X131925000Y-78440000D03*
X131925000Y-78940000D03*
X131925000Y-79440000D03*
X131925000Y-79940000D03*
X131925000Y-80440000D03*
X131925000Y-80940000D03*
X131925000Y-81440000D03*
X131925000Y-81940000D03*
X131925000Y-82440000D03*
X131425000Y-75940000D03*
X131425000Y-76440000D03*
X131425000Y-76940000D03*
X131425000Y-77440000D03*
X131425000Y-77940000D03*
X131425000Y-78440000D03*
X131425000Y-78940000D03*
X131425000Y-79440000D03*
X131425000Y-79940000D03*
X131425000Y-80440000D03*
X131425000Y-80940000D03*
X131425000Y-81440000D03*
X131425000Y-81940000D03*
X131425000Y-82440000D03*
X130925000Y-75940000D03*
X130925000Y-76440000D03*
X130925000Y-76940000D03*
X130925000Y-77440000D03*
X130925000Y-77940000D03*
X130925000Y-78440000D03*
X130925000Y-78940000D03*
X130925000Y-79440000D03*
X130925000Y-79940000D03*
X130925000Y-80440000D03*
X130925000Y-80940000D03*
X130925000Y-81440000D03*
X130925000Y-81940000D03*
X130925000Y-82440000D03*
X130425000Y-75940000D03*
X130425000Y-76440000D03*
X130425000Y-76940000D03*
X130425000Y-77440000D03*
X130425000Y-81440000D03*
X130425000Y-81940000D03*
X130425000Y-82440000D03*
X129925000Y-75940000D03*
X129925000Y-76440000D03*
X129925000Y-76940000D03*
X129925000Y-77940000D03*
X129925000Y-78440000D03*
X129925000Y-78940000D03*
X129925000Y-79440000D03*
X129925000Y-79940000D03*
X129925000Y-80440000D03*
X129925000Y-81440000D03*
X129925000Y-81940000D03*
X129925000Y-82440000D03*
X129425000Y-75940000D03*
X129425000Y-76440000D03*
X129425000Y-76940000D03*
X129425000Y-77940000D03*
X129425000Y-80440000D03*
X129425000Y-81440000D03*
X129425000Y-81940000D03*
X129425000Y-82440000D03*
X128925000Y-75940000D03*
X128925000Y-76440000D03*
X128925000Y-76940000D03*
X128925000Y-77940000D03*
X128925000Y-80440000D03*
X128925000Y-81440000D03*
X128925000Y-81940000D03*
X128925000Y-82440000D03*
X128425000Y-75940000D03*
X128425000Y-76440000D03*
X128425000Y-76940000D03*
X128425000Y-77940000D03*
X128425000Y-80440000D03*
X128425000Y-81440000D03*
X128425000Y-81940000D03*
X128425000Y-82440000D03*
X127925000Y-75940000D03*
X127925000Y-76440000D03*
X127925000Y-76940000D03*
X127925000Y-77940000D03*
X127925000Y-80440000D03*
X127925000Y-81440000D03*
X127925000Y-81940000D03*
X127925000Y-82440000D03*
X127425000Y-75940000D03*
X127425000Y-76440000D03*
X127425000Y-76940000D03*
X127425000Y-77940000D03*
X127425000Y-78440000D03*
X127425000Y-78940000D03*
X127425000Y-79440000D03*
X127425000Y-79940000D03*
X127425000Y-80440000D03*
X127425000Y-81440000D03*
X127425000Y-81940000D03*
X127425000Y-82440000D03*
X126925000Y-75940000D03*
X126925000Y-76440000D03*
X126925000Y-76940000D03*
X126925000Y-81440000D03*
X126925000Y-81940000D03*
X126925000Y-82440000D03*
X126425000Y-75940000D03*
X126425000Y-76440000D03*
X126425000Y-76940000D03*
X126425000Y-77440000D03*
X126425000Y-77940000D03*
X126425000Y-78440000D03*
X126425000Y-78940000D03*
X126425000Y-79440000D03*
X126425000Y-79940000D03*
X126425000Y-80440000D03*
X126425000Y-80940000D03*
X126425000Y-81440000D03*
X126425000Y-81940000D03*
X126425000Y-82440000D03*
X125925000Y-75940000D03*
X125925000Y-76440000D03*
X125925000Y-76940000D03*
X125925000Y-77440000D03*
X125925000Y-77940000D03*
X125925000Y-78440000D03*
X125925000Y-78940000D03*
X125925000Y-79440000D03*
X125925000Y-79940000D03*
X125925000Y-80440000D03*
X125925000Y-80940000D03*
X125925000Y-81440000D03*
X125925000Y-81940000D03*
X125925000Y-82440000D03*
X125425000Y-75940000D03*
X125425000Y-76440000D03*
X125425000Y-76940000D03*
X125425000Y-77440000D03*
X125425000Y-77940000D03*
X125425000Y-78440000D03*
X125425000Y-78940000D03*
X125425000Y-79440000D03*
X125425000Y-79940000D03*
X125425000Y-80440000D03*
X125425000Y-80940000D03*
X125425000Y-81440000D03*
X125425000Y-81940000D03*
X125425000Y-82440000D03*
%TD*%
D11*
%TO.C,C41*%
X149932500Y-91030000D03*
X152007500Y-91030000D03*
%TD*%
D12*
%TO.C,R12*%
X167070000Y-113600000D03*
X169070000Y-113600000D03*
%TD*%
D13*
%TO.C,C52*%
X127807500Y-144380000D03*
X125732500Y-144380000D03*
%TD*%
%TO.C,C15*%
X174767500Y-127450000D03*
X172692500Y-127450000D03*
%TD*%
D14*
%TO.C,C31*%
X222769000Y-134837500D03*
X222769000Y-132762500D03*
%TD*%
D15*
%TO.C,D3*%
X139222500Y-114610000D03*
X137172500Y-114610000D03*
%TD*%
D12*
%TO.C,R42*%
X143680000Y-105780000D03*
X145680000Y-105780000D03*
%TD*%
D16*
%TO.C,C34*%
X171810000Y-98740000D03*
X171810000Y-104140000D03*
%TD*%
D17*
%TO.C,R56*%
X139200000Y-81330000D03*
X137200000Y-81330000D03*
%TD*%
D18*
%TO.C,U10*%
X147325000Y-83317500D03*
X147325000Y-82682500D03*
X147325000Y-82047500D03*
X147325000Y-81412500D03*
X147325000Y-80777500D03*
X147325000Y-80142500D03*
X147325000Y-79507500D03*
X147325000Y-78872500D03*
X147325000Y-78237500D03*
X147325000Y-77602500D03*
X147325000Y-76967500D03*
X147325000Y-76332500D03*
X147325000Y-75697500D03*
X147325000Y-75062500D03*
X142125000Y-75062500D03*
X142125000Y-75697500D03*
X142125000Y-76332500D03*
X142125000Y-76967500D03*
X142125000Y-77602500D03*
X142125000Y-78237500D03*
X142125000Y-78872500D03*
X142125000Y-79507500D03*
X142125000Y-80142500D03*
X142125000Y-80777500D03*
X142125000Y-81412500D03*
X142125000Y-82047500D03*
X142125000Y-82682500D03*
X142125000Y-83317500D03*
%TD*%
D11*
%TO.C,C64*%
X130192500Y-87110000D03*
X132267500Y-87110000D03*
%TD*%
D17*
%TO.C,R30*%
X132215000Y-56965000D03*
X130215000Y-56965000D03*
%TD*%
D14*
%TO.C,C1*%
X176475000Y-149005000D03*
X176475000Y-146930000D03*
%TD*%
D12*
%TO.C,R34*%
X203240000Y-123640000D03*
X205240000Y-123640000D03*
%TD*%
D11*
%TO.C,C8*%
X198122500Y-127315000D03*
X200197500Y-127315000D03*
%TD*%
D16*
%TO.C,C71*%
X162560000Y-98780000D03*
X162560000Y-104180000D03*
%TD*%
D19*
%TO.C,RN2*%
X211451926Y-126275000D03*
X211451926Y-124935000D03*
X211451926Y-123615000D03*
X211451926Y-122275000D03*
X208451926Y-122275000D03*
X208451926Y-123615000D03*
X208451926Y-124935000D03*
X208451926Y-126275000D03*
%TD*%
D11*
%TO.C,C18*%
X198122500Y-123640000D03*
X200197500Y-123640000D03*
%TD*%
D20*
%TO.C,Y3*%
X151820000Y-115190000D03*
X151820000Y-112990000D03*
X150120000Y-112990000D03*
X150120000Y-115190000D03*
%TD*%
D13*
%TO.C,C16*%
X174767500Y-114750000D03*
X172692500Y-114750000D03*
%TD*%
D12*
%TO.C,R35*%
X203240000Y-120465000D03*
X205240000Y-120465000D03*
%TD*%
D11*
%TO.C,C50*%
X130132500Y-125310000D03*
X132207500Y-125310000D03*
%TD*%
D21*
%TO.C,R58*%
X217280000Y-138810000D03*
X217280000Y-140810000D03*
%TD*%
D14*
%TO.C,C40*%
X154450000Y-96145000D03*
X154450000Y-94070000D03*
%TD*%
D11*
%TO.C,C57*%
X130160000Y-144380000D03*
X132235000Y-144380000D03*
%TD*%
%TO.C,C26*%
X167062500Y-123640000D03*
X169137500Y-123640000D03*
%TD*%
D14*
%TO.C,C6*%
X195985000Y-134867500D03*
X195985000Y-132792500D03*
%TD*%
D22*
%TO.C,R9*%
X176850000Y-139460000D03*
X176850000Y-137460000D03*
%TD*%
D13*
%TO.C,C27*%
X174767500Y-121100000D03*
X172692500Y-121100000D03*
%TD*%
D14*
%TO.C,C28*%
X183285000Y-109347500D03*
X183285000Y-107272500D03*
%TD*%
%TO.C,C54*%
X154510000Y-134327500D03*
X154510000Y-132252500D03*
%TD*%
D23*
%TO.C,C19*%
X192810000Y-132792500D03*
X192810000Y-134867500D03*
%TD*%
D17*
%TO.C,R62*%
X201225000Y-146365000D03*
X199225000Y-146365000D03*
%TD*%
%TO.C,R6*%
X186190000Y-147125000D03*
X184190000Y-147125000D03*
%TD*%
D12*
%TO.C,R27*%
X161965000Y-114115000D03*
X163965000Y-114115000D03*
%TD*%
D14*
%TO.C,C2*%
X178435000Y-149005000D03*
X178435000Y-146930000D03*
%TD*%
D17*
%TO.C,R31*%
X132215000Y-60775000D03*
X130215000Y-60775000D03*
%TD*%
D15*
%TO.C,D2*%
X139225000Y-95540000D03*
X137175000Y-95540000D03*
%TD*%
D21*
%TO.C,FB1*%
X199160000Y-132800000D03*
X199160000Y-134800000D03*
%TD*%
D11*
%TO.C,C45*%
X130182500Y-109530000D03*
X132257500Y-109530000D03*
%TD*%
D19*
%TO.C,RN8*%
X237030000Y-129260000D03*
X237030000Y-130600000D03*
X237030000Y-131920000D03*
X237030000Y-133260000D03*
X240030000Y-133260000D03*
X240030000Y-131920000D03*
X240030000Y-130600000D03*
X240030000Y-129260000D03*
%TD*%
D17*
%TO.C,R16*%
X169070000Y-116840000D03*
X167070000Y-116840000D03*
%TD*%
D20*
%TO.C,Y4*%
X151820000Y-134390000D03*
X151820000Y-132190000D03*
X150120000Y-132190000D03*
X150120000Y-134390000D03*
%TD*%
D12*
%TO.C,R11*%
X167070000Y-120110000D03*
X169070000Y-120110000D03*
%TD*%
D13*
%TO.C,C60*%
X127850000Y-87100000D03*
X125775000Y-87100000D03*
%TD*%
D14*
%TO.C,C61*%
X154450000Y-77127500D03*
X154450000Y-75052500D03*
%TD*%
D11*
%TO.C,C38*%
X130142500Y-90440000D03*
X132217500Y-90440000D03*
%TD*%
D12*
%TO.C,R19*%
X210080000Y-111350000D03*
X212080000Y-111350000D03*
%TD*%
D23*
%TO.C,C22*%
X183285000Y-132792500D03*
X183285000Y-134867500D03*
%TD*%
D19*
%TO.C,RN1*%
X211451926Y-133453232D03*
X211451926Y-132113232D03*
X211451926Y-130793232D03*
X211451926Y-129453232D03*
X208451926Y-129453232D03*
X208451926Y-130793232D03*
X208451926Y-132113232D03*
X208451926Y-133453232D03*
%TD*%
D14*
%TO.C,C24*%
X219632000Y-134837500D03*
X219632000Y-132762500D03*
%TD*%
D21*
%TO.C,R49*%
X153980000Y-119360000D03*
X153980000Y-121360000D03*
%TD*%
D11*
%TO.C,C29*%
X198122500Y-120365000D03*
X200197500Y-120365000D03*
%TD*%
%TO.C,C32*%
X237492500Y-99510000D03*
X239567500Y-99510000D03*
%TD*%
D15*
%TO.C,D5*%
X139242500Y-76520000D03*
X137192500Y-76520000D03*
%TD*%
D11*
%TO.C,C59*%
X130160000Y-71290000D03*
X132235000Y-71290000D03*
%TD*%
D21*
%TO.C,R60*%
X222600000Y-138810000D03*
X222600000Y-140810000D03*
%TD*%
D13*
%TO.C,C42*%
X127800000Y-90430000D03*
X125725000Y-90430000D03*
%TD*%
%TO.C,C63*%
X127817500Y-71280000D03*
X125742500Y-71280000D03*
%TD*%
D12*
%TO.C,R29*%
X203240000Y-114020000D03*
X205240000Y-114020000D03*
%TD*%
D14*
%TO.C,C44*%
X136470000Y-91847500D03*
X136470000Y-89772500D03*
%TD*%
D19*
%TO.C,RN4*%
X203835000Y-103415000D03*
X203835000Y-102075000D03*
X203835000Y-100755000D03*
X203835000Y-99415000D03*
X200835000Y-99415000D03*
X200835000Y-100755000D03*
X200835000Y-102075000D03*
X200835000Y-103415000D03*
%TD*%
D14*
%TO.C,C14*%
X164105000Y-134867500D03*
X164105000Y-132792500D03*
%TD*%
D11*
%TO.C,C62*%
X149932500Y-72472500D03*
X152007500Y-72472500D03*
%TD*%
D12*
%TO.C,R10*%
X167070000Y-126990000D03*
X169070000Y-126990000D03*
%TD*%
%TO.C,R63*%
X217345000Y-145185000D03*
X219345000Y-145185000D03*
%TD*%
D23*
%TO.C,C30*%
X186460000Y-132792500D03*
X186460000Y-134867500D03*
%TD*%
D21*
%TO.C,R45*%
X154280000Y-100270000D03*
X154280000Y-102270000D03*
%TD*%
D14*
%TO.C,C65*%
X136510000Y-72777500D03*
X136510000Y-70702500D03*
%TD*%
D12*
%TO.C,R33*%
X203240000Y-133165000D03*
X205240000Y-133165000D03*
%TD*%
%TO.C,R2*%
X192445000Y-137610000D03*
X194445000Y-137610000D03*
%TD*%
D22*
%TO.C,R4*%
X189000000Y-142420000D03*
X189000000Y-140420000D03*
%TD*%
D13*
%TO.C,C49*%
X127840000Y-109520000D03*
X125765000Y-109520000D03*
%TD*%
D11*
%TO.C,C55*%
X149932500Y-129440000D03*
X152007500Y-129440000D03*
%TD*%
%TO.C,C43*%
X130160000Y-106250000D03*
X132235000Y-106250000D03*
%TD*%
D24*
%TO.C,Y1*%
X189330000Y-100830000D03*
X180830000Y-100830000D03*
%TD*%
D21*
%TO.C,R1*%
X169315000Y-147125000D03*
X169315000Y-149125000D03*
%TD*%
D22*
%TO.C,R39*%
X195985000Y-109280000D03*
X195985000Y-107280000D03*
%TD*%
D17*
%TO.C,R7*%
X174700000Y-130620000D03*
X172700000Y-130620000D03*
%TD*%
D14*
%TO.C,C17*%
X189505000Y-109347500D03*
X189505000Y-107272500D03*
%TD*%
D25*
%TO.C,D1*%
X225195000Y-101097500D03*
D26*
X225195000Y-103586700D03*
%TD*%
D14*
%TO.C,C23*%
X216495000Y-134837500D03*
X216495000Y-132762500D03*
%TD*%
D12*
%TO.C,R24*%
X161965000Y-117290000D03*
X163965000Y-117290000D03*
%TD*%
D23*
%TO.C,C13*%
X167280000Y-132792500D03*
X167280000Y-134867500D03*
%TD*%
D12*
%TO.C,R36*%
X203240000Y-129990000D03*
X205240000Y-129990000D03*
%TD*%
D14*
%TO.C,C11*%
X186330000Y-109347500D03*
X186330000Y-107272500D03*
%TD*%
D23*
%TO.C,C21*%
X180110000Y-132792500D03*
X180110000Y-134867500D03*
%TD*%
D14*
%TO.C,C47*%
X154510000Y-115277500D03*
X154510000Y-113202500D03*
%TD*%
D22*
%TO.C,R14*%
X176850000Y-109280000D03*
X176850000Y-107280000D03*
%TD*%
%TO.C,R40*%
X192810000Y-109280000D03*
X192810000Y-107280000D03*
%TD*%
D17*
%TO.C,R28*%
X146180000Y-64990000D03*
X144180000Y-64990000D03*
%TD*%
D27*
%TO.C,U2*%
X234245000Y-103320000D03*
D28*
X234245000Y-102050000D03*
X234245000Y-100780000D03*
X234245000Y-99510000D03*
X228845000Y-99510000D03*
X228845000Y-100780000D03*
X228845000Y-102050000D03*
X228845000Y-103320000D03*
%TD*%
D29*
%TO.C,U3*%
X135337500Y-59800000D03*
X135337500Y-60450000D03*
X135337500Y-61100000D03*
X135337500Y-61750000D03*
X141062500Y-61750000D03*
X141062500Y-61100000D03*
X141062500Y-60450000D03*
X141062500Y-59800000D03*
%TD*%
D17*
%TO.C,R15*%
X174700000Y-110940000D03*
X172700000Y-110940000D03*
%TD*%
D21*
%TO.C,R26*%
X145820000Y-54695000D03*
X145820000Y-56695000D03*
%TD*%
D17*
%TO.C,R22*%
X196985000Y-143960000D03*
X194985000Y-143960000D03*
%TD*%
D22*
%TO.C,R51*%
X150750000Y-140450000D03*
X150750000Y-138450000D03*
%TD*%
D21*
%TO.C,R53*%
X153960000Y-138450000D03*
X153960000Y-140450000D03*
%TD*%
D12*
%TO.C,R3*%
X197525000Y-137610000D03*
X199525000Y-137610000D03*
%TD*%
D14*
%TO.C,C69*%
X229043000Y-134837500D03*
X229043000Y-132762500D03*
%TD*%
D12*
%TO.C,R50*%
X143550000Y-143960000D03*
X145550000Y-143960000D03*
%TD*%
D30*
%TO.C,U12*%
X217725000Y-128762500D03*
X218125000Y-128762500D03*
X218525000Y-128762500D03*
X218925000Y-128762500D03*
X219325000Y-128762500D03*
X219725000Y-128762500D03*
X220125000Y-128762500D03*
X220525000Y-128762500D03*
X220925000Y-128762500D03*
X221325000Y-128762500D03*
X221725000Y-128762500D03*
X222125000Y-128762500D03*
X222525000Y-128762500D03*
X222925000Y-128762500D03*
X223325000Y-128762500D03*
X223725000Y-128762500D03*
X224125000Y-128762500D03*
X224525000Y-128762500D03*
X224925000Y-128762500D03*
X225325000Y-128762500D03*
X225725000Y-128762500D03*
X226125000Y-128762500D03*
X226525000Y-128762500D03*
X226925000Y-128762500D03*
X227325000Y-128762500D03*
X227725000Y-128762500D03*
X228125000Y-128762500D03*
X228525000Y-128762500D03*
X228925000Y-128762500D03*
X229325000Y-128762500D03*
X229725000Y-128762500D03*
X230125000Y-128762500D03*
D31*
X231587500Y-127300000D03*
X231587500Y-126900000D03*
X231587500Y-126500000D03*
X231587500Y-126100000D03*
X231587500Y-125700000D03*
X231587500Y-125300000D03*
X231587500Y-124900000D03*
X231587500Y-124500000D03*
X231587500Y-124100000D03*
X231587500Y-123700000D03*
X231587500Y-123300000D03*
X231587500Y-122900000D03*
X231587500Y-122500000D03*
X231587500Y-122100000D03*
X231587500Y-121700000D03*
X231587500Y-121300000D03*
X231587500Y-120900000D03*
X231587500Y-120500000D03*
X231587500Y-120100000D03*
X231587500Y-119700000D03*
X231587500Y-119300000D03*
X231587500Y-118900000D03*
X231587500Y-118500000D03*
X231587500Y-118100000D03*
X231587500Y-117700000D03*
X231587500Y-117300000D03*
X231587500Y-116900000D03*
X231587500Y-116500000D03*
X231587500Y-116100000D03*
X231587500Y-115700000D03*
X231587500Y-115300000D03*
X231587500Y-114900000D03*
D30*
X230125000Y-113437500D03*
X229725000Y-113437500D03*
X229325000Y-113437500D03*
X228925000Y-113437500D03*
X228525000Y-113437500D03*
X228125000Y-113437500D03*
X227725000Y-113437500D03*
X227325000Y-113437500D03*
X226925000Y-113437500D03*
X226525000Y-113437500D03*
X226125000Y-113437500D03*
X225725000Y-113437500D03*
X225325000Y-113437500D03*
X224925000Y-113437500D03*
X224525000Y-113437500D03*
X224125000Y-113437500D03*
X223725000Y-113437500D03*
X223325000Y-113437500D03*
X222925000Y-113437500D03*
X222525000Y-113437500D03*
X222125000Y-113437500D03*
X221725000Y-113437500D03*
X221325000Y-113437500D03*
X220925000Y-113437500D03*
X220525000Y-113437500D03*
X220125000Y-113437500D03*
X219725000Y-113437500D03*
X219325000Y-113437500D03*
X218925000Y-113437500D03*
X218525000Y-113437500D03*
X218125000Y-113437500D03*
X217725000Y-113437500D03*
D31*
X216262500Y-114900000D03*
X216262500Y-115300000D03*
X216262500Y-115700000D03*
X216262500Y-116100000D03*
X216262500Y-116500000D03*
X216262500Y-116900000D03*
X216262500Y-117300000D03*
X216262500Y-117700000D03*
X216262500Y-118100000D03*
X216262500Y-118500000D03*
X216262500Y-118900000D03*
X216262500Y-119300000D03*
X216262500Y-119700000D03*
X216262500Y-120100000D03*
X216262500Y-120500000D03*
X216262500Y-120900000D03*
X216262500Y-121300000D03*
X216262500Y-121700000D03*
X216262500Y-122100000D03*
X216262500Y-122500000D03*
X216262500Y-122900000D03*
X216262500Y-123300000D03*
X216262500Y-123700000D03*
X216262500Y-124100000D03*
X216262500Y-124500000D03*
X216262500Y-124900000D03*
X216262500Y-125300000D03*
X216262500Y-125700000D03*
X216262500Y-126100000D03*
X216262500Y-126500000D03*
X216262500Y-126900000D03*
X216262500Y-127300000D03*
%TD*%
D21*
%TO.C,R57*%
X154060000Y-81200000D03*
X154060000Y-83200000D03*
%TD*%
D12*
%TO.C,R54*%
X143720000Y-86730000D03*
X145720000Y-86730000D03*
%TD*%
D23*
%TO.C,C7*%
X189635000Y-132792500D03*
X189635000Y-134867500D03*
%TD*%
D14*
%TO.C,C70*%
X232180000Y-134837500D03*
X232180000Y-132762500D03*
%TD*%
D13*
%TO.C,C56*%
X127800000Y-128590000D03*
X125725000Y-128590000D03*
%TD*%
D11*
%TO.C,C36*%
X185947500Y-104640000D03*
X188022500Y-104640000D03*
%TD*%
D19*
%TO.C,RN10*%
X204145000Y-143555000D03*
X205485000Y-143555000D03*
X206805000Y-143555000D03*
X208145000Y-143555000D03*
X208145000Y-140555000D03*
X206805000Y-140555000D03*
X205485000Y-140555000D03*
X204145000Y-140555000D03*
%TD*%
D32*
%TO.C,C33*%
X237260000Y-144755000D03*
X237260000Y-139355000D03*
%TD*%
D12*
%TO.C,R17*%
X203240000Y-117210000D03*
X205240000Y-117210000D03*
%TD*%
%TO.C,R23*%
X161965000Y-120565000D03*
X163965000Y-120565000D03*
%TD*%
D20*
%TO.C,Y5*%
X151740000Y-77130000D03*
X151740000Y-74930000D03*
X150040000Y-74930000D03*
X150040000Y-77130000D03*
%TD*%
D18*
%TO.C,U4*%
X147325000Y-102404566D03*
X147325000Y-101769566D03*
X147325000Y-101134566D03*
X147325000Y-100499566D03*
X147325000Y-99864566D03*
X147325000Y-99229566D03*
X147325000Y-98594566D03*
X147325000Y-97959566D03*
X147325000Y-97324566D03*
X147325000Y-96689566D03*
X147325000Y-96054566D03*
X147325000Y-95419566D03*
X147325000Y-94784566D03*
X147325000Y-94149566D03*
X142125000Y-94149566D03*
X142125000Y-94784566D03*
X142125000Y-95419566D03*
X142125000Y-96054566D03*
X142125000Y-96689566D03*
X142125000Y-97324566D03*
X142125000Y-97959566D03*
X142125000Y-98594566D03*
X142125000Y-99229566D03*
X142125000Y-99864566D03*
X142125000Y-100499566D03*
X142125000Y-101134566D03*
X142125000Y-101769566D03*
X142125000Y-102404566D03*
%TD*%
D17*
%TO.C,R25*%
X146185000Y-61410000D03*
X144185000Y-61410000D03*
%TD*%
D33*
%TO.C,L1*%
X220026100Y-103320000D03*
X210043900Y-103320000D03*
%TD*%
D13*
%TO.C,C12*%
X174767500Y-117925000D03*
X172692500Y-117925000D03*
%TD*%
D12*
%TO.C,R37*%
X203240000Y-126815000D03*
X205240000Y-126815000D03*
%TD*%
D11*
%TO.C,C53*%
X130142500Y-128600000D03*
X132217500Y-128600000D03*
%TD*%
D17*
%TO.C,R52*%
X139220000Y-138530000D03*
X137220000Y-138530000D03*
%TD*%
D12*
%TO.C,R21*%
X233085000Y-107130000D03*
X235085000Y-107130000D03*
%TD*%
D17*
%TO.C,R48*%
X139210000Y-119490000D03*
X137210000Y-119490000D03*
%TD*%
%TO.C,R18*%
X239530000Y-103320000D03*
X237530000Y-103320000D03*
%TD*%
D11*
%TO.C,C10*%
X198122500Y-116890000D03*
X200197500Y-116890000D03*
%TD*%
D22*
%TO.C,R61*%
X219940000Y-140810000D03*
X219940000Y-138810000D03*
%TD*%
D23*
%TO.C,C4*%
X176805000Y-132792500D03*
X176805000Y-134867500D03*
%TD*%
D11*
%TO.C,C48*%
X149932500Y-110500000D03*
X152007500Y-110500000D03*
%TD*%
D30*
%TO.C,U1*%
X180260000Y-128762500D03*
X180660000Y-128762500D03*
X181060000Y-128762500D03*
X181460000Y-128762500D03*
X181860000Y-128762500D03*
X182260000Y-128762500D03*
X182660000Y-128762500D03*
X183060000Y-128762500D03*
X183460000Y-128762500D03*
X183860000Y-128762500D03*
X184260000Y-128762500D03*
X184660000Y-128762500D03*
X185060000Y-128762500D03*
X185460000Y-128762500D03*
X185860000Y-128762500D03*
X186260000Y-128762500D03*
X186660000Y-128762500D03*
X187060000Y-128762500D03*
X187460000Y-128762500D03*
X187860000Y-128762500D03*
X188260000Y-128762500D03*
X188660000Y-128762500D03*
X189060000Y-128762500D03*
X189460000Y-128762500D03*
X189860000Y-128762500D03*
X190260000Y-128762500D03*
X190660000Y-128762500D03*
X191060000Y-128762500D03*
X191460000Y-128762500D03*
X191860000Y-128762500D03*
X192260000Y-128762500D03*
X192660000Y-128762500D03*
D31*
X194122500Y-127300000D03*
X194122500Y-126900000D03*
X194122500Y-126500000D03*
X194122500Y-126100000D03*
X194122500Y-125700000D03*
X194122500Y-125300000D03*
X194122500Y-124900000D03*
X194122500Y-124500000D03*
X194122500Y-124100000D03*
X194122500Y-123700000D03*
X194122500Y-123300000D03*
X194122500Y-122900000D03*
X194122500Y-122500000D03*
X194122500Y-122100000D03*
X194122500Y-121700000D03*
X194122500Y-121300000D03*
X194122500Y-120900000D03*
X194122500Y-120500000D03*
X194122500Y-120100000D03*
X194122500Y-119700000D03*
X194122500Y-119300000D03*
X194122500Y-118900000D03*
X194122500Y-118500000D03*
X194122500Y-118100000D03*
X194122500Y-117700000D03*
X194122500Y-117300000D03*
X194122500Y-116900000D03*
X194122500Y-116500000D03*
X194122500Y-116100000D03*
X194122500Y-115700000D03*
X194122500Y-115300000D03*
X194122500Y-114900000D03*
D30*
X192660000Y-113437500D03*
X192260000Y-113437500D03*
X191860000Y-113437500D03*
X191460000Y-113437500D03*
X191060000Y-113437500D03*
X190660000Y-113437500D03*
X190260000Y-113437500D03*
X189860000Y-113437500D03*
X189460000Y-113437500D03*
X189060000Y-113437500D03*
X188660000Y-113437500D03*
X188260000Y-113437500D03*
X187860000Y-113437500D03*
X187460000Y-113437500D03*
X187060000Y-113437500D03*
X186660000Y-113437500D03*
X186260000Y-113437500D03*
X185860000Y-113437500D03*
X185460000Y-113437500D03*
X185060000Y-113437500D03*
X184660000Y-113437500D03*
X184260000Y-113437500D03*
X183860000Y-113437500D03*
X183460000Y-113437500D03*
X183060000Y-113437500D03*
X182660000Y-113437500D03*
X182260000Y-113437500D03*
X181860000Y-113437500D03*
X181460000Y-113437500D03*
X181060000Y-113437500D03*
X180660000Y-113437500D03*
X180260000Y-113437500D03*
D31*
X178797500Y-114900000D03*
X178797500Y-115300000D03*
X178797500Y-115700000D03*
X178797500Y-116100000D03*
X178797500Y-116500000D03*
X178797500Y-116900000D03*
X178797500Y-117300000D03*
X178797500Y-117700000D03*
X178797500Y-118100000D03*
X178797500Y-118500000D03*
X178797500Y-118900000D03*
X178797500Y-119300000D03*
X178797500Y-119700000D03*
X178797500Y-120100000D03*
X178797500Y-120500000D03*
X178797500Y-120900000D03*
X178797500Y-121300000D03*
X178797500Y-121700000D03*
X178797500Y-122100000D03*
X178797500Y-122500000D03*
X178797500Y-122900000D03*
X178797500Y-123300000D03*
X178797500Y-123700000D03*
X178797500Y-124100000D03*
X178797500Y-124500000D03*
X178797500Y-124900000D03*
X178797500Y-125300000D03*
X178797500Y-125700000D03*
X178797500Y-126100000D03*
X178797500Y-126500000D03*
X178797500Y-126900000D03*
X178797500Y-127300000D03*
%TD*%
D19*
%TO.C,RN6*%
X237030000Y-114890000D03*
X237030000Y-116230000D03*
X237030000Y-117550000D03*
X237030000Y-118890000D03*
X240030000Y-118890000D03*
X240030000Y-117550000D03*
X240030000Y-116230000D03*
X240030000Y-114890000D03*
%TD*%
D15*
%TO.C,D4*%
X139225000Y-133800000D03*
X137175000Y-133800000D03*
%TD*%
D23*
%TO.C,C5*%
X173675000Y-137422500D03*
X173675000Y-139497500D03*
%TD*%
D18*
%TO.C,U9*%
X147325000Y-140578700D03*
X147325000Y-139943700D03*
X147325000Y-139308700D03*
X147325000Y-138673700D03*
X147325000Y-138038700D03*
X147325000Y-137403700D03*
X147325000Y-136768700D03*
X147325000Y-136133700D03*
X147325000Y-135498700D03*
X147325000Y-134863700D03*
X147325000Y-134228700D03*
X147325000Y-133593700D03*
X147325000Y-132958700D03*
X147325000Y-132323700D03*
X142125000Y-132323700D03*
X142125000Y-132958700D03*
X142125000Y-133593700D03*
X142125000Y-134228700D03*
X142125000Y-134863700D03*
X142125000Y-135498700D03*
X142125000Y-136133700D03*
X142125000Y-136768700D03*
X142125000Y-137403700D03*
X142125000Y-138038700D03*
X142125000Y-138673700D03*
X142125000Y-139308700D03*
X142125000Y-139943700D03*
X142125000Y-140578700D03*
%TD*%
D23*
%TO.C,C35*%
X141375000Y-54657500D03*
X141375000Y-56732500D03*
%TD*%
D22*
%TO.C,R43*%
X150990000Y-102270000D03*
X150990000Y-100270000D03*
%TD*%
D14*
%TO.C,C51*%
X136520000Y-111000000D03*
X136520000Y-108925000D03*
%TD*%
%TO.C,C58*%
X136450000Y-130157500D03*
X136450000Y-128082500D03*
%TD*%
D22*
%TO.C,R5*%
X192175000Y-142420000D03*
X192175000Y-140420000D03*
%TD*%
D13*
%TO.C,C39*%
X127817500Y-106240000D03*
X125742500Y-106240000D03*
%TD*%
D17*
%TO.C,R8*%
X199525000Y-140785000D03*
X197525000Y-140785000D03*
%TD*%
D12*
%TO.C,R13*%
X167070000Y-110310000D03*
X169070000Y-110310000D03*
%TD*%
D17*
%TO.C,R20*%
X239530000Y-107130000D03*
X237530000Y-107130000D03*
%TD*%
D12*
%TO.C,R46*%
X143740000Y-124970000D03*
X145740000Y-124970000D03*
%TD*%
D22*
%TO.C,R38*%
X199160000Y-109280000D03*
X199160000Y-107280000D03*
%TD*%
D17*
%TO.C,R32*%
X132215000Y-64585000D03*
X130215000Y-64585000D03*
%TD*%
D19*
%TO.C,RN12*%
X211130000Y-143555000D03*
X212470000Y-143555000D03*
X213790000Y-143555000D03*
X215130000Y-143555000D03*
X215130000Y-140555000D03*
X213790000Y-140555000D03*
X212470000Y-140555000D03*
X211130000Y-140555000D03*
%TD*%
D17*
%TO.C,R44*%
X139210000Y-100400000D03*
X137210000Y-100400000D03*
%TD*%
D19*
%TO.C,RN7*%
X237035000Y-122075000D03*
X237035000Y-123415000D03*
X237035000Y-124735000D03*
X237035000Y-126075000D03*
X240035000Y-126075000D03*
X240035000Y-124735000D03*
X240035000Y-123415000D03*
X240035000Y-122075000D03*
%TD*%
D23*
%TO.C,C3*%
X173630000Y-132792500D03*
X173630000Y-134867500D03*
%TD*%
D22*
%TO.C,FB2*%
X170455000Y-134800000D03*
X170455000Y-132800000D03*
%TD*%
D21*
%TO.C,R41*%
X180110000Y-107280000D03*
X180110000Y-109280000D03*
%TD*%
D19*
%TO.C,RN3*%
X211451926Y-119090000D03*
X211451926Y-117750000D03*
X211451926Y-116430000D03*
X211451926Y-115090000D03*
X208451926Y-115090000D03*
X208451926Y-116430000D03*
X208451926Y-117750000D03*
X208451926Y-119090000D03*
%TD*%
D12*
%TO.C,R59*%
X221310000Y-145230000D03*
X223310000Y-145230000D03*
%TD*%
D32*
%TO.C,C72*%
X227735000Y-144755000D03*
X227735000Y-139355000D03*
%TD*%
D18*
%TO.C,U8*%
X147325000Y-121491632D03*
X147325000Y-120856632D03*
X147325000Y-120221632D03*
X147325000Y-119586632D03*
X147325000Y-118951632D03*
X147325000Y-118316632D03*
X147325000Y-117681632D03*
X147325000Y-117046632D03*
X147325000Y-116411632D03*
X147325000Y-115776632D03*
X147325000Y-115141632D03*
X147325000Y-114506632D03*
X147325000Y-113871632D03*
X147325000Y-113236632D03*
X142125000Y-113236632D03*
X142125000Y-113871632D03*
X142125000Y-114506632D03*
X142125000Y-115141632D03*
X142125000Y-115776632D03*
X142125000Y-116411632D03*
X142125000Y-117046632D03*
X142125000Y-117681632D03*
X142125000Y-118316632D03*
X142125000Y-118951632D03*
X142125000Y-119586632D03*
X142125000Y-120221632D03*
X142125000Y-120856632D03*
X142125000Y-121491632D03*
%TD*%
D20*
%TO.C,Y2*%
X151840000Y-96040000D03*
X151840000Y-93840000D03*
X150140000Y-93840000D03*
X150140000Y-96040000D03*
%TD*%
D14*
%TO.C,C68*%
X225906000Y-134837500D03*
X225906000Y-132762500D03*
%TD*%
D22*
%TO.C,R47*%
X150720000Y-121360000D03*
X150720000Y-119360000D03*
%TD*%
D13*
%TO.C,C46*%
X127790000Y-125300000D03*
X125715000Y-125300000D03*
%TD*%
D22*
%TO.C,R55*%
X150850000Y-83270000D03*
X150850000Y-81270000D03*
%TD*%
D13*
%TO.C,C37*%
X184212500Y-104640000D03*
X182137500Y-104640000D03*
%TD*%
%TO.C,C9*%
X174767500Y-124275000D03*
X172692500Y-124275000D03*
%TD*%
D19*
%TO.C,RN5*%
X198120000Y-103415000D03*
X198120000Y-102075000D03*
X198120000Y-100755000D03*
X198120000Y-99415000D03*
X195120000Y-99415000D03*
X195120000Y-100755000D03*
X195120000Y-102075000D03*
X195120000Y-103415000D03*
%TD*%
M02*
